<?xml version="1.0" encoding="UTF-8" standalone="no"?>
<!DOCTYPE svg PUBLIC "-//W3C//DTD SVG 1.1//EN" "http://www.w3.org/Graphics/SVG/1.1/DTD/svg11.dtd">
<svg width="100%" height="100%" viewBox="0 0 1797 1797" version="1.1" xmlns="http://www.w3.org/2000/svg" xmlns:xlink="http://www.w3.org/1999/xlink" xml:space="preserve" xmlns:serif="http://www.serif.com/" style="fill-rule:evenodd;clip-rule:evenodd;stroke-linecap:square;stroke-miterlimit:1.5;">
    <g transform="matrix(1,0,0,1,-351.426,-904.776)">
        <g transform="matrix(1.19728,0,0,1.19728,-14.835,-225.551)">
            <g transform="matrix(0.745651,0,0,0.663037,133.135,564.164)">
                <rect x="273.78" y="620.304" width="1927.6" height="2167.77"/>
            </g>
            <g transform="matrix(1.34579,0,0,1.37493,-130.191,-79.0587)">
                <rect x="347.359" y="766.951" width="1068.22" height="1045.58" style="fill:white;fill-opacity:0;stroke:white;stroke-width:25.58px;"/>
            </g>
            <g transform="matrix(1.22109,0,0,1.22109,-36.2187,18.5164)">
                <g transform="matrix(0.87,0,0,1,63.6951,0)">
                    <g transform="matrix(256.418,0,0,256.418,489.962,1226.02)">
                        <path d="M0.574,-0.314C0.574,-0.202 0.527,-0.134 0.408,-0.134C0.289,-0.134 0.241,-0.203 0.241,-0.314C0.241,-0.426 0.288,-0.496 0.407,-0.496C0.526,-0.496 0.574,-0.426 0.574,-0.314ZM0.741,-0.314C0.741,-0.501 0.639,-0.64 0.427,-0.64C0.355,-0.64 0.288,-0.617 0.252,-0.581L0.25,-0.581L0.25,-0.84L0.083,-0.84L0.083,0.001L0.25,0.001L0.25,-0.045L0.252,-0.045C0.29,-0.011 0.354,0.01 0.427,0.01C0.637,0.01 0.741,-0.127 0.741,-0.314Z" style="fill:white;fill-rule:nonzero;"/>
                    </g>
                    <g transform="matrix(256.418,0,0,256.418,692.788,1226.02)">
                        <rect x="0.083" y="-0.84" width="0.167" height="0.84" style="fill:white;fill-rule:nonzero;"/>
                    </g>
                    <g transform="matrix(256.418,0,0,256.418,777.919,1226.02)">
                        <path d="M0.513,-0.257L0.513,-0.197C0.513,-0.134 0.392,-0.128 0.341,-0.128C0.276,-0.128 0.216,-0.148 0.216,-0.194C0.216,-0.226 0.242,-0.248 0.305,-0.261C0.336,-0.268 0.371,-0.271 0.404,-0.272C0.438,-0.274 0.464,-0.274 0.491,-0.274C0.495,-0.274 0.523,-0.274 0.529,-0.273L0.513,-0.257ZM0.68,-0.391C0.68,-0.564 0.555,-0.639 0.385,-0.639C0.278,-0.639 0.181,-0.613 0.095,-0.552L0.198,-0.448C0.255,-0.486 0.32,-0.501 0.383,-0.501C0.458,-0.501 0.506,-0.474 0.51,-0.421L0.527,-0.405C0.521,-0.406 0.476,-0.406 0.471,-0.406C0.311,-0.406 0.05,-0.387 0.05,-0.196C0.05,-0.034 0.211,0.011 0.335,0.011C0.399,0.011 0.464,-0.004 0.511,-0.035L0.513,-0.035L0.513,0.001L0.68,0.001L0.68,-0.391Z" style="fill:white;fill-rule:nonzero;"/>
                    </g>
                    <g transform="matrix(256.418,0,0,256.418,972.284,1226.02)">
                        <path d="M0.543,-0.201C0.496,-0.155 0.45,-0.133 0.388,-0.133C0.267,-0.133 0.217,-0.209 0.217,-0.31C0.217,-0.416 0.276,-0.496 0.39,-0.496C0.452,-0.496 0.497,-0.475 0.539,-0.431L0.649,-0.541C0.587,-0.603 0.503,-0.64 0.389,-0.64C0.172,-0.64 0.05,-0.493 0.05,-0.311C0.05,-0.132 0.159,0.01 0.387,0.01C0.491,0.01 0.583,-0.027 0.652,-0.092L0.543,-0.201Z" style="fill:white;fill-rule:nonzero;"/>
                    </g>
                    <g transform="matrix(256.418,0,0,256.418,1146.39,1226.02)">
                        <path d="M0.25,-0.84L0.083,-0.84L0.083,0L0.25,0L0.25,-0.84ZM0.459,-0.32L0.459,-0.322L0.763,-0.63L0.555,-0.63L0.26,-0.32L0.56,0L0.774,0L0.459,-0.32Z" style="fill:white;fill-rule:nonzero;"/>
                    </g>
                </g>
                <g transform="matrix(0.9,0,0,1,48.9962,0)">
                    <g transform="matrix(256.418,0,0,256.418,489.962,1456.87)">
                        <path d="M0.779,-0.63L0.692,-0.318L0.674,-0.211L0.672,-0.211L0.652,-0.318L0.553,-0.63L0.414,-0.63L0.316,-0.318L0.296,-0.212L0.294,-0.212L0.276,-0.318L0.189,-0.63L0.013,-0.63L0.207,0L0.378,0L0.462,-0.285L0.483,-0.389L0.485,-0.389L0.504,-0.285L0.588,0L0.758,0L0.954,-0.63L0.779,-0.63Z" style="fill:white;fill-rule:nonzero;"/>
                    </g>
                    <g transform="matrix(256.418,0,0,256.418,737.918,1456.87)">
                        <path d="M0.553,-0.315C0.553,-0.207 0.502,-0.133 0.385,-0.133C0.269,-0.133 0.217,-0.207 0.217,-0.315C0.217,-0.424 0.267,-0.496 0.385,-0.496C0.502,-0.496 0.553,-0.423 0.553,-0.315ZM0.72,-0.315C0.72,-0.499 0.609,-0.64 0.384,-0.64C0.161,-0.64 0.05,-0.498 0.05,-0.315C0.05,-0.132 0.161,0.01 0.385,0.01C0.607,0.01 0.72,-0.133 0.72,-0.315Z" style="fill:white;fill-rule:nonzero;"/>
                    </g>
                    <g transform="matrix(256.418,0,0,256.418,935.36,1456.87)">
                        <path d="M0.553,-0.315C0.553,-0.207 0.502,-0.133 0.385,-0.133C0.269,-0.133 0.217,-0.207 0.217,-0.315C0.217,-0.424 0.267,-0.496 0.385,-0.496C0.502,-0.496 0.553,-0.423 0.553,-0.315ZM0.72,-0.315C0.72,-0.499 0.609,-0.64 0.384,-0.64C0.161,-0.64 0.05,-0.498 0.05,-0.315C0.05,-0.132 0.161,0.01 0.385,0.01C0.607,0.01 0.72,-0.133 0.72,-0.315Z" style="fill:white;fill-rule:nonzero;"/>
                    </g>
                    <g transform="matrix(256.418,0,0,256.418,1132.8,1456.87)">
                        <path d="M0.549,-0.314C0.549,-0.203 0.502,-0.134 0.383,-0.134C0.264,-0.134 0.217,-0.202 0.217,-0.314C0.217,-0.426 0.265,-0.496 0.383,-0.496C0.503,-0.496 0.549,-0.426 0.549,-0.314ZM0.708,-0.84L0.541,-0.84L0.541,-0.581L0.539,-0.581C0.503,-0.617 0.435,-0.64 0.364,-0.64C0.151,-0.64 0.05,-0.501 0.05,-0.314C0.05,-0.127 0.154,0.01 0.363,0.01C0.437,0.01 0.501,-0.011 0.539,-0.045L0.541,-0.045L0.541,0.001L0.708,0.001L0.708,-0.84Z" style="fill:white;fill-rule:nonzero;"/>
                    </g>
                </g>
                <g transform="matrix(0.908875,0,0,1,44.6477,0)">
                    <g transform="matrix(256.418,0,0,256.418,489.962,1707.67)">
                        <path d="M0.574,-0.314C0.574,-0.202 0.527,-0.134 0.408,-0.134C0.289,-0.134 0.241,-0.203 0.241,-0.314C0.241,-0.426 0.288,-0.496 0.407,-0.496C0.526,-0.496 0.574,-0.426 0.574,-0.314ZM0.741,-0.314C0.741,-0.501 0.639,-0.64 0.427,-0.64C0.355,-0.64 0.288,-0.617 0.252,-0.581L0.25,-0.581L0.25,-0.84L0.083,-0.84L0.083,0.001L0.25,0.001L0.25,-0.045L0.252,-0.045C0.29,-0.011 0.354,0.01 0.427,0.01C0.637,0.01 0.741,-0.127 0.741,-0.314Z" style="fill:white;fill-rule:nonzero;"/>
                    </g>
                    <g transform="matrix(256.418,0,0,256.418,692.788,1707.67)">
                        <path d="M0.553,-0.315C0.553,-0.207 0.502,-0.133 0.385,-0.133C0.269,-0.133 0.217,-0.207 0.217,-0.315C0.217,-0.424 0.267,-0.496 0.385,-0.496C0.502,-0.496 0.553,-0.423 0.553,-0.315ZM0.72,-0.315C0.72,-0.499 0.609,-0.64 0.384,-0.64C0.161,-0.64 0.05,-0.498 0.05,-0.315C0.05,-0.132 0.161,0.01 0.385,0.01C0.607,0.01 0.72,-0.133 0.72,-0.315Z" style="fill:white;fill-rule:nonzero;"/>
                    </g>
                    <g transform="matrix(256.418,0,0,256.418,890.23,1707.67)">
                        <path d="M0.471,-0.316L0.717,-0.63L0.511,-0.63L0.407,-0.496L0.37,-0.43L0.368,-0.43L0.331,-0.496L0.229,-0.63L0.02,-0.63L0.267,-0.316L0.018,0L0.225,0L0.337,-0.144L0.367,-0.2L0.369,-0.2L0.4,-0.144L0.512,0L0.72,0L0.471,-0.316Z" style="fill:white;fill-rule:nonzero;"/>
                    </g>
                </g>
            </g>
            <g transform="matrix(0.835227,0,0,1.08026,28.2776,-236.839)">
                <rect x="618.056" y="1902.4" width="1169.33" height="55.543"/>
            </g>
            <g transform="matrix(0.835227,0,0,1.36211,38.4303,-1376.69)">
                <rect x="618.056" y="1902.4" width="1169.33" height="55.543"/>
            </g>
            <g transform="matrix(0.835227,0,0,0.946765,38.4303,-281.372)">
                <rect x="618.056" y="1902.4" width="1169.33" height="55.543"/>
            </g>
            <g transform="matrix(2.52358,0,0,2.61896,-1747.04,-2731.74)">
                <rect x="1267.96" y="1842.41" width="127.641" height="122.036" style="fill:white;"/>
            </g>
        </g>
    </g>
</svg>
