<?xml version="1.0" encoding="UTF-8" standalone="no"?>
<!DOCTYPE svg PUBLIC "-//W3C//DTD SVG 1.1//EN" "http://www.w3.org/Graphics/SVG/1.1/DTD/svg11.dtd">
<svg width="100%" height="100%" viewBox="0 0 707 841" version="1.1" xmlns="http://www.w3.org/2000/svg" xmlns:xlink="http://www.w3.org/1999/xlink" xml:space="preserve" xmlns:serif="http://www.serif.com/" style="fill-rule:evenodd;clip-rule:evenodd;stroke-linejoin:round;stroke-miterlimit:2;">
    <g transform="matrix(1,0,0,1,-146.87,-95.6596)">
        <g transform="matrix(0.760324,0,0,0.823458,103.63,155.489)">
            <rect x="56.87" y="671" width="142.13" height="131.233"/>
        </g>
        <g opacity="0.33">
            <g transform="matrix(0.760324,0,0,0.823458,103.63,3.29704)">
                <rect x="56.87" y="671" width="142.13" height="131.233" style="fill:rgb(166,166,166);fill-opacity:0.5;"/>
            </g>
            <g transform="matrix(0.760324,0,0,0.823458,103.63,-149.795)">
                <rect x="56.87" y="671" width="142.13" height="131.233" style="fill:rgb(166,166,166);fill-opacity:0.5;"/>
            </g>
            <g transform="matrix(0.760324,0,0,0.823458,103.63,-303.788)">
                <rect x="56.87" y="671" width="142.13" height="131.233" style="fill:rgb(166,166,166);fill-opacity:0.5;"/>
            </g>
            <g transform="matrix(0.760324,0,0,0.823458,103.63,-456.881)">
                <rect x="56.87" y="671" width="142.13" height="131.233" style="fill:rgb(166,166,166);fill-opacity:0.5;"/>
            </g>
            <g transform="matrix(0.760324,0,0,0.823458,253.179,-149.795)">
                <rect x="56.87" y="671" width="142.13" height="131.233" style="fill:rgb(166,166,166);fill-opacity:0.5;"/>
            </g>
            <g transform="matrix(0.760324,0,0,0.823458,253.179,-303.788)">
                <rect x="56.87" y="671" width="142.13" height="131.233" style="fill:rgb(166,166,166);fill-opacity:0.5;"/>
            </g>
            <g transform="matrix(0.760324,0,0,0.823458,253.179,-456.881)">
                <rect x="56.87" y="671" width="142.13" height="131.233" style="fill:rgb(166,166,166);fill-opacity:0.5;"/>
            </g>
            <g transform="matrix(0.760324,0,0,0.823458,402.728,-303.788)">
                <rect x="56.87" y="671" width="142.13" height="131.233" style="fill:rgb(166,166,166);fill-opacity:0.5;"/>
            </g>
            <g transform="matrix(0.760324,0,0,0.823458,402.728,-456.881)">
                <rect x="56.87" y="671" width="142.13" height="131.233" style="fill:rgb(166,166,166);fill-opacity:0.5;"/>
            </g>
            <g transform="matrix(0.760324,0,0,0.823458,552.277,-456.881)">
                <rect x="56.87" y="671" width="142.13" height="131.233" style="fill:rgb(166,166,166);fill-opacity:0.5;"/>
            </g>
        </g>
        <g transform="matrix(0.760324,0,0,0.823458,253.179,155.489)">
            <rect x="56.87" y="671" width="142.13" height="131.233"/>
        </g>
        <g transform="matrix(0.760324,0,0,0.823458,253.179,3.29704)">
            <rect x="56.87" y="671" width="142.13" height="131.233"/>
        </g>
        <g transform="matrix(0.760324,0,0,0.823458,402.728,155.489)">
            <rect x="56.87" y="671" width="142.13" height="131.233"/>
        </g>
        <g transform="matrix(0.760324,0,0,0.823458,402.728,3.29704)">
            <rect x="56.87" y="671" width="142.13" height="131.233"/>
        </g>
        <g transform="matrix(0.760324,0,0,0.823458,402.728,-149.795)">
            <rect x="56.87" y="671" width="142.13" height="131.233"/>
        </g>
        <g transform="matrix(0.760324,0,0,0.823458,552.277,155.489)">
            <rect x="56.87" y="671" width="142.13" height="131.233"/>
        </g>
        <g transform="matrix(0.760324,0,0,0.823458,552.277,3.29704)">
            <rect x="56.87" y="671" width="142.13" height="131.233"/>
        </g>
        <g transform="matrix(0.760324,0,0,0.823458,552.277,-149.795)">
            <rect x="56.87" y="671" width="142.13" height="131.233"/>
        </g>
        <g transform="matrix(0.760324,0,0,0.823458,552.277,-303.788)">
            <rect x="56.87" y="671" width="142.13" height="131.233"/>
        </g>
        <g transform="matrix(0.760324,0,0,0.823458,701.826,155.489)">
            <rect x="56.87" y="671" width="142.13" height="131.233"/>
        </g>
        <g transform="matrix(0.760324,0,0,0.823458,701.826,3.29704)">
            <rect x="56.87" y="671" width="142.13" height="131.233"/>
        </g>
        <g transform="matrix(0.760324,0,0,0.823458,701.826,-149.795)">
            <rect x="56.87" y="671" width="142.13" height="131.233"/>
        </g>
        <g transform="matrix(0.760324,0,0,0.823458,701.826,-303.788)">
            <rect x="56.87" y="671" width="142.13" height="131.233"/>
        </g>
        <g transform="matrix(0.760324,0,0,0.823458,701.826,-456.881)">
            <rect x="56.87" y="671" width="142.13" height="131.233"/>
        </g>
        <g transform="matrix(0.900543,0,0,0.900543,59.6655,131.815)">
            <text x="111px" y="893px" style="font-family:'Poppins-Bold', 'Poppins';font-weight:700;font-size:134.02px;">B</text>
        </g>
        <g transform="matrix(0.900543,0,0,0.900543,209.758,131.815)">
            <text x="111px" y="893px" style="font-family:'Poppins-Bold', 'Poppins';font-weight:700;font-size:134.02px;">R</text>
        </g>
        <g transform="matrix(0.900543,0,0,0.900543,355.505,131.815)">
            <text x="111px" y="893px" style="font-family:'Poppins-Bold', 'Poppins';font-weight:700;font-size:134.02px;">A</text>
        </g>
        <g transform="matrix(0.900543,0,0,0.900543,504.209,131.815)">
            <text x="111px" y="893px" style="font-family:'Poppins-Bold', 'Poppins';font-weight:700;font-size:134.02px;">N</text>
        </g>
        <g transform="matrix(0.900543,0,0,0.900543,653.577,131.815)">
            <text x="111px" y="893px" style="font-family:'Poppins-Bold', 'Poppins';font-weight:700;font-size:134.02px;">D</text>
        </g>
    </g>
</svg>
