<?xml version="1.0" encoding="UTF-8" standalone="no"?>
<!DOCTYPE svg PUBLIC "-//W3C//DTD SVG 1.1//EN" "http://www.w3.org/Graphics/SVG/1.1/DTD/svg11.dtd">
<svg width="100%" height="100%" viewBox="0 0 1000 1000" version="1.1" xmlns="http://www.w3.org/2000/svg" xmlns:xlink="http://www.w3.org/1999/xlink" xml:space="preserve" xmlns:serif="http://www.serif.com/" style="fill-rule:evenodd;clip-rule:evenodd;stroke-linejoin:round;stroke-miterlimit:2;">
    <g transform="matrix(1.24962,0,0,1.14543,-5.95731,36.6976)">
        <rect x="4.767" y="724" width="107.233" height="117" style="fill-opacity:0.15;"/>
    </g>
    <g transform="matrix(1.24962,0,0,1.14543,210.543,36.6976)">
        <rect x="4.767" y="724" width="107.233" height="117" style="fill-opacity:0.4;"/>
    </g>
    <g transform="matrix(1.24962,0,0,1.14543,210.543,-179.799)">
        <rect x="4.767" y="724" width="107.233" height="117" style="fill-opacity:0.4;"/>
    </g>
    <g transform="matrix(1.24962,0,0,1.14543,427.043,36.6976)">
        <rect x="4.767" y="724" width="107.233" height="117" style="fill-opacity:0.6;"/>
    </g>
    <g transform="matrix(1.24962,0,0,1.14543,427.043,-179.799)">
        <rect x="4.767" y="724" width="107.233" height="117" style="fill-opacity:0.6;"/>
    </g>
    <g transform="matrix(1.24962,0,0,1.14543,427.043,-396.295)">
        <rect x="4.767" y="724" width="107.233" height="117" style="fill-opacity:0.6;"/>
    </g>
    <g transform="matrix(1.24962,0,0,1.14543,643.543,36.6976)">
        <rect x="4.767" y="724" width="107.233" height="117" style="fill-opacity:0.8;"/>
    </g>
    <g transform="matrix(1.24962,0,0,1.14543,643.543,-179.799)">
        <rect x="4.767" y="724" width="107.233" height="117" style="fill-opacity:0.8;"/>
    </g>
    <g transform="matrix(1.24962,0,0,1.14543,643.543,-396.295)">
        <rect x="4.767" y="724" width="107.233" height="117" style="fill-opacity:0.8;"/>
    </g>
    <g transform="matrix(1.24962,0,0,1.14543,643.543,-612.791)">
        <rect x="4.767" y="724" width="107.233" height="117" style="fill-opacity:0.8;"/>
    </g>
    <g transform="matrix(1.24962,0,0,1.14543,860.043,36.6976)">
        <rect x="4.767" y="724" width="107.233" height="117"/>
    </g>
    <g transform="matrix(1.24962,0,0,1.14543,860.043,-179.799)">
        <rect x="4.767" y="724" width="107.233" height="117"/>
    </g>
    <g transform="matrix(1.24962,0,0,1.14543,860.043,-396.295)">
        <rect x="4.767" y="724" width="107.233" height="117"/>
    </g>
    <g transform="matrix(1.24962,0,0,1.14543,860.043,-612.791)">
        <rect x="4.767" y="724" width="107.233" height="117"/>
    </g>
    <g transform="matrix(1.24962,0,0,1.14543,860.043,-829.288)">
        <rect x="4.767" y="724" width="107.233" height="117"/>
    </g>
    <g opacity="0.05">
        <g transform="matrix(1.24962,0,0,1.14543,-5.95731,-179.799)">
            <rect x="4.767" y="724" width="107.233" height="117"/>
        </g>
        <g transform="matrix(1.24962,0,0,1.14543,-5.95731,-396.295)">
            <rect x="4.767" y="724" width="107.233" height="117"/>
        </g>
        <g transform="matrix(1.24962,0,0,1.14543,-5.95731,-612.791)">
            <rect x="4.767" y="724" width="107.233" height="117"/>
        </g>
        <g transform="matrix(1.24962,0,0,1.14543,-5.95731,-829.288)">
            <rect x="4.767" y="724" width="107.233" height="117"/>
        </g>
        <g transform="matrix(1.24962,0,0,1.14543,210.543,-396.295)">
            <rect x="4.767" y="724" width="107.233" height="117"/>
        </g>
        <g transform="matrix(1.24962,0,0,1.14543,210.543,-612.791)">
            <rect x="4.767" y="724" width="107.233" height="117"/>
        </g>
        <g transform="matrix(1.24962,0,0,1.14543,210.543,-829.288)">
            <rect x="4.767" y="724" width="107.233" height="117"/>
        </g>
        <g transform="matrix(1.24962,0,0,1.14543,427.043,-612.791)">
            <rect x="4.767" y="724" width="107.233" height="117"/>
        </g>
        <g transform="matrix(1.24962,0,0,1.14543,427.043,-829.288)">
            <rect x="4.767" y="724" width="107.233" height="117"/>
        </g>
        <g transform="matrix(1.24962,0,0,1.14543,643.543,-829.288)">
            <rect x="4.767" y="724" width="107.233" height="117"/>
        </g>
    </g>
</svg>
