<?xml version="1.0" encoding="UTF-8" standalone="no"?>
<!DOCTYPE svg PUBLIC "-//W3C//DTD SVG 1.1//EN" "http://www.w3.org/Graphics/SVG/1.1/DTD/svg11.dtd">
<!-- Created with Vectornator (http://vectornator.io/) -->
<svg height="100%" stroke-miterlimit="10" style="fill-rule:nonzero;clip-rule:evenodd;stroke-linecap:round;stroke-linejoin:round;" version="1.1" viewBox="172.545 317.272 233.392 273.858" width="100%" xml:space="preserve" xmlns="http://www.w3.org/2000/svg" xmlns:vectornator="http://vectornator.io" xmlns:xlink="http://www.w3.org/1999/xlink">
<defs/>
<g id="Layer-1" vectornator:layerName="Layer 1">
<g opacity="1" vectornator:layerName="Group 1">
<path d="M191.391 574.767C193.223 575.098 194.762 575.999 196.009 577.47C197.255 578.942 197.878 580.669 197.878 582.651C197.878 584.273 197.495 585.723 196.729 586.999C195.963 588.276 194.822 589.282 193.305 590.018C191.789 590.753 189.949 591.121 187.786 591.121L177.74 591.121L177.74 559.494L187.606 559.494C190.76 559.494 193.14 560.223 194.747 561.68C196.354 563.136 197.157 565.021 197.157 567.334C197.157 569.346 196.617 570.975 195.535 572.222C194.454 573.468 193.073 574.317 191.391 574.767ZM179.767 573.866L187.696 573.866C190.069 573.866 191.894 573.303 193.17 572.177C194.447 571.05 195.085 569.496 195.085 567.514C195.085 565.592 194.454 564.075 193.193 562.964C191.931 561.852 190.024 561.297 187.471 561.297L179.767 561.297L179.767 573.866ZM187.651 589.364C190.204 589.364 192.209 588.756 193.666 587.54C195.122 586.323 195.851 584.649 195.851 582.516C195.851 580.414 195.107 578.739 193.621 577.493C192.134 576.247 190.099 575.623 187.516 575.623L179.767 575.623L179.767 589.364L187.651 589.364Z" fill="#000000" opacity="1" stroke="none" vectornator:layerName="Text 2"/>
<path d="M249.765 591.13L242.508 578.882L237.098 578.882L237.098 591.13L234.162 591.13L234.162 561.812L242.97 561.812C246.241 561.812 248.723 562.595 250.415 564.16C252.107 565.726 252.952 567.781 252.952 570.326C252.952 572.451 252.344 574.262 251.128 575.758C249.911 577.254 248.115 578.225 245.738 578.673L253.288 591.13L249.765 591.13ZM237.098 576.492L243.012 576.492C245.305 576.492 247.031 575.932 248.192 574.814C249.352 573.695 249.932 572.199 249.932 570.326C249.932 568.397 249.373 566.908 248.255 565.859C247.136 564.811 245.375 564.286 242.97 564.286L237.098 564.286L237.098 576.492Z" fill="#000000" opacity="1" stroke="none" vectornator:layerName="Text 5"/>
<path d="M352.455 586.13L346.079 586.13L335.414 569.984L335.414 586.13L329.038 586.13L329.038 559.953L335.414 559.953L346.079 576.174L346.079 559.953L352.455 559.953L352.455 586.13Z" fill="#000000" opacity="1" stroke="none" vectornator:layerName="Text 6"/>
<path d="M291.218 584.371L279.416 584.371L277.388 590.13L272.562 590.13L282.661 561.902L288.014 561.902L298.113 590.13L293.246 590.13L291.218 584.371ZM289.92 580.599L285.338 567.499L280.714 580.599L289.92 580.599Z" fill="#000000" opacity="1" stroke="none" vectornator:layerName="Text 7"/>
<path d="M386.645 558.83C389.719 558.83 392.413 559.446 394.726 560.679C397.039 561.911 398.818 563.636 400.065 565.852C401.311 568.067 401.934 570.602 401.934 573.455C401.934 576.28 401.304 578.801 400.044 581.017C398.784 583.233 396.997 584.971 394.684 586.231C392.371 587.491 389.691 588.121 386.645 588.121L375.053 588.121L375.053 558.83L386.645 558.83ZM386.021 580.934C388.403 580.934 390.273 580.283 391.63 578.981C392.988 577.679 393.666 575.837 393.666 573.455C393.666 571.045 392.988 569.182 391.63 567.867C390.273 566.551 388.403 565.893 386.021 565.893L383.196 565.893L383.196 580.934L386.021 580.934Z" fill="#000000" opacity="1" stroke="none" vectornator:layerName="Text 1"/>
<path d="M172.545 516.962L207.257 516.962L207.257 548.847L172.545 548.847L172.545 516.962Z" fill="#000000" fill-rule="nonzero" opacity="1" stroke="none" vectornator:layerName="Rectangle 13"/>
<path d="M222.216 516.962L256.927 516.962L256.927 548.847L222.216 548.847L222.216 516.962Z" fill="#000000" fill-rule="nonzero" opacity="1" stroke="none" vectornator:layerName="Rectangle 14"/>
<path d="M220.013 469.252L254.724 469.252L254.724 501.137L220.013 501.137L220.013 469.252Z" fill="#000000" fill-rule="nonzero" opacity="1" stroke="none" vectornator:layerName="Rectangle 19"/>
<path d="M271.886 516.962L306.597 516.962L306.597 548.847L271.886 548.847L271.886 516.962Z" fill="#000000" fill-rule="nonzero" opacity="1" stroke="none" vectornator:layerName="Rectangle 15"/>
<path d="M269.683 469.252L304.395 469.252L304.395 501.137L269.683 501.137L269.683 469.252Z" fill="#000000" fill-rule="nonzero" opacity="1" stroke="none" vectornator:layerName="Rectangle 20"/>
<path d="M269.683 421.542L304.395 421.542L304.395 453.427L269.683 453.427L269.683 421.542Z" fill="#000000" fill-rule="nonzero" opacity="1" stroke="none" vectornator:layerName="Rectangle 25"/>
<path d="M321.556 516.962L356.267 516.962L356.267 548.847L321.556 548.847L321.556 516.962Z" fill="#000000" fill-rule="nonzero" opacity="1" stroke="none" vectornator:layerName="Rectangle 16"/>
<path d="M319.353 469.252L354.065 469.252L354.065 501.137L319.353 501.137L319.353 469.252Z" fill="#000000" fill-rule="nonzero" opacity="1" stroke="none" vectornator:layerName="Rectangle 21"/>
<path d="M319.353 421.542L354.065 421.542L354.065 453.427L319.353 453.427L319.353 421.542Z" fill="#000000" fill-rule="nonzero" opacity="1" stroke="none" vectornator:layerName="Rectangle 26"/>
<path d="M319.353 367.585L354.065 367.585L354.065 399.47L319.353 399.47L319.353 367.585Z" fill="#000000" fill-rule="nonzero" opacity="1" stroke="none" vectornator:layerName="Rectangle 31"/>
<path d="M371.226 516.962L405.937 516.962L405.937 548.847L371.226 548.847L371.226 516.962Z" fill="#000000" fill-rule="nonzero" opacity="1" stroke="none" vectornator:layerName="Rectangle 17"/>
<path d="M369.023 469.252L403.735 469.252L403.735 501.137L369.023 501.137L369.023 469.252Z" fill="#000000" fill-rule="nonzero" opacity="1" stroke="none" vectornator:layerName="Rectangle 22"/>
<path d="M369.023 421.542L403.735 421.542L403.735 453.427L369.023 453.427L369.023 421.542Z" fill="#000000" fill-rule="nonzero" opacity="1" stroke="none" vectornator:layerName="Rectangle 27"/>
<path d="M369.023 367.585L403.735 367.585L403.735 399.47L369.023 399.47L369.023 367.585Z" fill="#000000" fill-rule="nonzero" opacity="1" stroke="none" vectornator:layerName="Rectangle 32"/>
<path d="M369.023 317.272L403.735 317.272L403.735 349.156L369.023 349.156L369.023 317.272Z" fill="#000000" fill-rule="nonzero" opacity="1" stroke="none" vectornator:layerName="Rectangle 12"/>
</g>
</g>
</svg>
