<?xml version="1.0" encoding="UTF-8" standalone="no"?>
<!DOCTYPE svg PUBLIC "-//W3C//DTD SVG 1.1//EN" "http://www.w3.org/Graphics/SVG/1.1/DTD/svg11.dtd">
<svg width="100%" height="100%" viewBox="0 0 1000 1000" version="1.1" xmlns="http://www.w3.org/2000/svg" xmlns:xlink="http://www.w3.org/1999/xlink" xml:space="preserve" xmlns:serif="http://www.serif.com/" style="fill-rule:evenodd;clip-rule:evenodd;stroke-linejoin:round;stroke-miterlimit:2;">
    <g transform="matrix(1.41369,0,0,1.49627,-210.217,-403.864)">
        <g transform="matrix(0.900543,0,0,0.900543,59.6655,131.815)">
            <g transform="matrix(134.02,0,0,134.02,111,893)">
                <path d="M0.506,-0.362C0.547,-0.353 0.58,-0.332 0.605,-0.301C0.629,-0.269 0.641,-0.233 0.641,-0.192C0.641,-0.132 0.62,-0.085 0.579,-0.051C0.538,-0.017 0.48,0 0.405,0L0.056,0L0.056,-0.705L0.394,-0.705C0.466,-0.705 0.523,-0.689 0.564,-0.657C0.604,-0.625 0.625,-0.58 0.625,-0.522C0.625,-0.481 0.614,-0.446 0.593,-0.419C0.571,-0.391 0.542,-0.372 0.506,-0.362ZM0.252,-0.425L0.351,-0.425C0.4,-0.425 0.425,-0.445 0.425,-0.486C0.425,-0.528 0.4,-0.549 0.351,-0.549L0.252,-0.549L0.252,-0.425ZM0.366,-0.158C0.415,-0.158 0.44,-0.179 0.44,-0.22C0.44,-0.241 0.434,-0.258 0.421,-0.269C0.408,-0.28 0.389,-0.286 0.365,-0.286L0.252,-0.286L0.252,-0.158L0.366,-0.158Z" style="fill-rule:nonzero;"/>
            </g>
        </g>
        <g transform="matrix(0.900543,0,0,0.900543,59.6655,131.815)">
            <g transform="matrix(134.02,0,0,134.02,111,893)">
                <path d="M0.506,-0.362C0.547,-0.353 0.58,-0.332 0.605,-0.301C0.629,-0.269 0.641,-0.233 0.641,-0.192C0.641,-0.132 0.62,-0.085 0.579,-0.051C0.538,-0.017 0.48,0 0.405,0L0.056,0L0.056,-0.705L0.394,-0.705C0.466,-0.705 0.523,-0.689 0.564,-0.657C0.604,-0.625 0.625,-0.58 0.625,-0.522C0.625,-0.481 0.614,-0.446 0.593,-0.419C0.571,-0.391 0.542,-0.372 0.506,-0.362ZM0.252,-0.425L0.351,-0.425C0.4,-0.425 0.425,-0.445 0.425,-0.486C0.425,-0.528 0.4,-0.549 0.351,-0.549L0.252,-0.549L0.252,-0.425ZM0.366,-0.158C0.415,-0.158 0.44,-0.179 0.44,-0.22C0.44,-0.241 0.434,-0.258 0.421,-0.269C0.408,-0.28 0.389,-0.286 0.365,-0.286L0.252,-0.286L0.252,-0.158L0.366,-0.158Z" style="fill-rule:nonzero;"/>
            </g>
        </g>
        <g transform="matrix(0.900543,0,0,0.900543,209.758,131.815)">
            <g transform="matrix(134.02,0,0,134.02,111,893)">
                <path d="M0.413,0L0.273,-0.26L0.252,-0.26L0.252,0L0.056,0L0.056,-0.705L0.365,-0.705C0.422,-0.705 0.47,-0.695 0.509,-0.676C0.548,-0.656 0.578,-0.629 0.598,-0.595C0.618,-0.56 0.628,-0.522 0.628,-0.479C0.628,-0.431 0.615,-0.389 0.589,-0.353C0.562,-0.316 0.524,-0.29 0.473,-0.275L0.632,0L0.413,0ZM0.252,-0.394L0.349,-0.394C0.376,-0.394 0.396,-0.4 0.409,-0.413C0.422,-0.426 0.429,-0.444 0.429,-0.468C0.429,-0.491 0.422,-0.509 0.409,-0.522C0.395,-0.535 0.375,-0.541 0.349,-0.541L0.252,-0.541L0.252,-0.394Z" style="fill-rule:nonzero;"/>
            </g>
        </g>
        <g transform="matrix(0.900543,0,0,0.900543,355.505,131.815)">
            <g transform="matrix(134.02,0,0,134.02,111,893)">
                <path d="M0.502,-0.115L0.252,-0.115L0.214,0L0.008,0L0.265,-0.705L0.491,-0.705L0.747,0L0.54,0L0.502,-0.115ZM0.453,-0.265L0.377,-0.493L0.302,-0.265L0.453,-0.265Z" style="fill-rule:nonzero;"/>
            </g>
        </g>
        <g transform="matrix(0.900543,0,0,0.900543,504.209,131.815)">
            <g transform="matrix(134.02,0,0,134.02,111,893)">
                <path d="M0.709,0L0.513,0L0.252,-0.394L0.252,0L0.056,0L0.056,-0.705L0.252,-0.705L0.513,-0.306L0.513,-0.705L0.709,-0.705L0.709,0Z" style="fill-rule:nonzero;"/>
            </g>
        </g>
        <g transform="matrix(0.900543,0,0,0.900543,653.577,131.815)">
            <g transform="matrix(134.02,0,0,134.02,111,893)">
                <path d="M0.335,-0.705C0.409,-0.705 0.474,-0.69 0.53,-0.661C0.585,-0.631 0.628,-0.589 0.658,-0.536C0.688,-0.483 0.703,-0.422 0.703,-0.353C0.703,-0.285 0.688,-0.224 0.658,-0.171C0.627,-0.118 0.584,-0.076 0.529,-0.046C0.473,-0.015 0.408,0 0.335,0L0.056,0L0.056,-0.705L0.335,-0.705ZM0.32,-0.173C0.377,-0.173 0.422,-0.189 0.455,-0.22C0.488,-0.251 0.504,-0.296 0.504,-0.353C0.504,-0.411 0.488,-0.456 0.455,-0.488C0.422,-0.519 0.377,-0.535 0.32,-0.535L0.252,-0.535L0.252,-0.173L0.32,-0.173Z" style="fill-rule:nonzero;"/>
            </g>
        </g>
    </g>
    <g>
        <g transform="matrix(1.24962,0,0,1.14543,8.73134,-133.819)">
            <rect x="4.767" y="724" width="107.233" height="117"/>
        </g>
        <g transform="matrix(1.24962,0,0,1.14543,216.757,-133.819)">
            <rect x="4.767" y="724" width="107.233" height="117"/>
        </g>
        <g transform="matrix(1.24962,0,0,1.14543,220.148,-307.686)">
            <rect x="4.767" y="724" width="107.233" height="117"/>
        </g>
        <g transform="matrix(1.24962,0,0,1.14543,430.434,-133.819)">
            <rect x="4.767" y="724" width="107.233" height="117"/>
        </g>
        <g transform="matrix(1.24962,0,0,1.14543,433.825,-307.686)">
            <rect x="4.767" y="724" width="107.233" height="117"/>
        </g>
        <g transform="matrix(1.24962,0,0,1.14543,430.434,-481.553)">
            <rect x="4.767" y="724" width="107.233" height="117"/>
        </g>
        <g transform="matrix(1.24962,0,0,1.14543,639.589,-133.819)">
            <rect x="4.767" y="724" width="107.233" height="117"/>
        </g>
        <g transform="matrix(1.24962,0,0,1.14543,642.981,-307.686)">
            <rect x="4.767" y="724" width="107.233" height="117"/>
        </g>
        <g transform="matrix(1.24962,0,0,1.14543,639.589,-481.553)">
            <rect x="4.767" y="724" width="107.233" height="117"/>
        </g>
        <g transform="matrix(1.24962,0,0,1.14543,639.589,-655.421)">
            <rect x="4.767" y="724" width="107.233" height="117"/>
        </g>
        <g transform="matrix(1.24962,0,0,1.14543,848.745,-133.819)">
            <rect x="4.767" y="724" width="107.233" height="117"/>
        </g>
        <g transform="matrix(1.24962,0,0,1.14543,852.136,-307.686)">
            <rect x="4.767" y="724" width="107.233" height="117"/>
        </g>
        <g transform="matrix(1.24962,0,0,1.14543,848.745,-481.553)">
            <rect x="4.767" y="724" width="107.233" height="117"/>
        </g>
        <g transform="matrix(1.24962,0,0,1.14543,848.745,-655.421)">
            <rect x="4.767" y="724" width="107.233" height="117"/>
        </g>
        <g transform="matrix(1.24962,0,0,1.14543,852.136,-829.288)">
            <rect x="4.767" y="724" width="107.233" height="117"/>
        </g>
    </g>
    <g opacity="0.1">
        <g transform="matrix(1.24962,0,0,1.14543,8.73134,-307.686)">
            <rect x="4.767" y="724" width="107.233" height="117"/>
        </g>
        <g transform="matrix(1.24962,0,0,1.14543,8.73134,-481.553)">
            <rect x="4.767" y="724" width="107.233" height="117"/>
        </g>
        <g transform="matrix(1.24962,0,0,1.14543,8.73134,-655.421)">
            <rect x="4.767" y="724" width="107.233" height="117"/>
        </g>
        <g transform="matrix(1.24962,0,0,1.14543,8.73134,-829.288)">
            <rect x="4.767" y="724" width="107.233" height="117"/>
        </g>
        <g transform="matrix(1.24962,0,0,1.14543,216.757,-481.553)">
            <rect x="4.767" y="724" width="107.233" height="117"/>
        </g>
        <g transform="matrix(1.24962,0,0,1.14543,216.757,-655.421)">
            <rect x="4.767" y="724" width="107.233" height="117"/>
        </g>
        <g transform="matrix(1.24962,0,0,1.14543,220.148,-829.288)">
            <rect x="4.767" y="724" width="107.233" height="117"/>
        </g>
        <g transform="matrix(1.24962,0,0,1.14543,430.434,-655.421)">
            <rect x="4.767" y="724" width="107.233" height="117"/>
        </g>
        <g transform="matrix(1.24962,0,0,1.14543,433.825,-829.288)">
            <rect x="4.767" y="724" width="107.233" height="117"/>
        </g>
        <g transform="matrix(1.24962,0,0,1.14543,642.981,-829.288)">
            <rect x="4.767" y="724" width="107.233" height="117"/>
        </g>
    </g>
</svg>
