<?xml version="1.0" encoding="UTF-8" standalone="no"?>
<!DOCTYPE svg PUBLIC "-//W3C//DTD SVG 1.1//EN" "http://www.w3.org/Graphics/SVG/1.1/DTD/svg11.dtd">
<!-- Created with Vectornator (http://vectornator.io/) -->
<svg height="100%" stroke-miterlimit="10" style="fill-rule:nonzero;clip-rule:evenodd;stroke-linecap:round;stroke-linejoin:round;" version="1.1" viewBox="1617.48 905.945 26 26" width="100%" xml:space="preserve" xmlns="http://www.w3.org/2000/svg" xmlns:vectornator="http://vectornator.io" xmlns:xlink="http://www.w3.org/1999/xlink">
<defs/>
<clipPath id="ArtboardFrame">
<rect height="26" width="26" x="1617.48" y="905.945"/>
</clipPath>
<g clip-path="url(#ArtboardFrame)" id="Layer" vectornator:layerName="Layer">
<g opacity="1" vectornator:layerName="Group 1">
<g opacity="1" vectornator:layerName="Calendar 2">
<path d="M1624.48 910.945C1623.88 910.945 1623.48 910.545 1623.48 909.945L1623.48 906.945C1623.48 906.345 1623.88 905.945 1624.48 905.945L1624.48 905.945C1625.08 905.945 1625.48 906.345 1625.48 906.945L1625.48 909.945C1625.48 910.545 1625.08 910.945 1624.48 910.945L1624.48 910.945Z" fill="#303030" fill-rule="nonzero" opacity="1" stroke="none" vectornator:layerName="path"/>
<path d="M1640.48 907.945L1638.48 907.945L1638.48 909.945C1638.48 911.045 1637.58 911.945 1636.48 911.945C1635.38 911.945 1634.48 911.045 1634.48 909.945L1634.48 907.945L1626.48 907.945L1626.48 909.945C1626.48 911.045 1625.58 911.945 1624.48 911.945C1623.38 911.945 1622.48 911.045 1622.48 909.945L1622.48 907.945L1620.48 907.945C1618.78 907.945 1617.48 909.245 1617.48 910.945L1617.48 928.945C1617.48 930.645 1618.78 931.945 1620.48 931.945L1640.48 931.945C1642.18 931.945 1643.48 930.645 1643.48 928.945L1643.48 910.945C1643.48 909.245 1642.18 907.945 1640.48 907.945ZM1641.48 928.945C1641.48 929.545 1641.08 929.945 1640.48 929.945L1620.48 929.945C1619.88 929.945 1619.48 929.545 1619.48 928.945L1619.48 914.945L1641.48 914.945L1641.48 928.945Z" fill="#303030" fill-rule="nonzero" opacity="1" stroke="none" vectornator:layerName="path"/>
<path d="M1636.48 910.945C1635.88 910.945 1635.48 910.545 1635.48 909.945L1635.48 906.945C1635.48 906.345 1635.88 905.945 1636.48 905.945L1636.48 905.945C1637.08 905.945 1637.48 906.345 1637.48 906.945L1637.48 909.945C1637.48 910.545 1637.08 910.945 1636.48 910.945L1636.48 910.945Z" fill="#303030" fill-rule="nonzero" opacity="1" stroke="none" vectornator:layerName="path"/>
</g>
<path d="M1621.57 926.297C1621.57 925.71 1622.04 925.234 1622.63 925.234C1623.22 925.234 1623.69 925.71 1623.69 926.297C1623.69 926.884 1623.22 927.36 1622.63 927.36C1622.04 927.36 1621.57 926.884 1621.57 926.297Z" fill="#303030" fill-rule="nonzero" opacity="1" stroke="none" vectornator:layerName="Oval 22"/>
<path d="M1621.57 922.554C1621.57 921.967 1622.04 921.491 1622.63 921.491C1623.22 921.491 1623.69 921.967 1623.69 922.554C1623.69 923.142 1623.22 923.618 1622.63 923.618C1622.04 923.618 1621.57 923.142 1621.57 922.554Z" fill="#303030" fill-rule="nonzero" opacity="1" stroke="none" vectornator:layerName="Oval 23"/>
<path d="M1621.57 918.812C1621.57 918.225 1622.04 917.749 1622.63 917.749C1623.22 917.749 1623.69 918.225 1623.69 918.812C1623.69 919.399 1623.22 919.875 1622.63 919.875C1622.04 919.875 1621.57 919.399 1621.57 918.812Z" fill="#303030" fill-rule="nonzero" opacity="1" stroke="none" vectornator:layerName="Oval 24"/>
<path d="M1626.82 918.812C1626.82 918.225 1627.3 917.749 1627.88 917.749C1628.47 917.749 1628.95 918.225 1628.95 918.812C1628.95 919.399 1628.47 919.875 1627.88 919.875C1627.3 919.875 1626.82 919.399 1626.82 918.812Z" fill="#303030" fill-rule="nonzero" opacity="1" stroke="none" vectornator:layerName="Oval 25"/>
<path d="M1626.82 922.554C1626.82 921.967 1627.3 921.491 1627.88 921.491C1628.47 921.491 1628.95 921.967 1628.95 922.554C1628.95 923.142 1628.47 923.618 1627.88 923.618C1627.3 923.618 1626.82 923.142 1626.82 922.554Z" fill="#303030" fill-rule="nonzero" opacity="1" stroke="none" vectornator:layerName="Oval 26"/>
<path d="M1626.91 926.297C1626.91 925.71 1627.39 925.234 1627.98 925.234C1628.56 925.234 1629.04 925.71 1629.04 926.297C1629.04 926.884 1628.56 927.36 1627.98 927.36C1627.39 927.36 1626.91 926.884 1626.91 926.297Z" fill="#303030" fill-rule="nonzero" opacity="1" stroke="none" vectornator:layerName="Oval 27"/>
<path d="M1632.12 926.297C1632.12 925.71 1632.59 925.234 1633.18 925.234C1633.77 925.234 1634.24 925.71 1634.24 926.297C1634.24 926.884 1633.77 927.36 1633.18 927.36C1632.59 927.36 1632.12 926.884 1632.12 926.297Z" fill="#303030" fill-rule="nonzero" opacity="1" stroke="none" vectornator:layerName="Oval 28"/>
<path d="M1632.07 922.554C1632.07 921.967 1632.55 921.491 1633.13 921.491C1633.72 921.491 1634.2 921.967 1634.2 922.554C1634.2 923.142 1633.72 923.618 1633.13 923.618C1632.55 923.618 1632.07 923.142 1632.07 922.554Z" fill="#303030" fill-rule="nonzero" opacity="1" stroke="none" vectornator:layerName="Oval 30"/>
<path d="M1637.32 918.812C1637.32 918.225 1637.8 917.749 1638.39 917.749C1638.97 917.749 1639.45 918.225 1639.45 918.812C1639.45 919.399 1638.97 919.875 1638.39 919.875C1637.8 919.875 1637.32 919.399 1637.32 918.812Z" fill="#303030" fill-rule="nonzero" opacity="1" stroke="none" vectornator:layerName="Oval 31"/>
<path d="M1637.32 922.554C1637.32 921.967 1637.8 921.491 1638.39 921.491C1638.97 921.491 1639.45 921.967 1639.45 922.554C1639.45 923.142 1638.97 923.618 1638.39 923.618C1637.8 923.618 1637.32 923.142 1637.32 922.554Z" fill="#303030" fill-rule="nonzero" opacity="1" stroke="none" vectornator:layerName="Oval 32"/>
<path d="M1637.32 926.297C1637.32 925.71 1637.8 925.234 1638.39 925.234C1638.97 925.234 1639.45 925.71 1639.45 926.297C1639.45 926.884 1638.97 927.36 1638.39 927.36C1637.8 927.36 1637.32 926.884 1637.32 926.297Z" fill="#303030" fill-rule="nonzero" opacity="1" stroke="none" vectornator:layerName="Oval 29"/>
<path d="M1632.07 918.812C1632.07 918.225 1632.55 917.749 1633.13 917.749C1633.72 917.749 1634.2 918.225 1634.2 918.812C1634.2 919.399 1633.72 919.875 1633.13 919.875C1632.55 919.875 1632.07 919.399 1632.07 918.812Z" fill="#303030" fill-rule="nonzero" opacity="1" stroke="none" vectornator:layerName="Oval 21"/>
</g>
</g>
</svg>
