<?xml version="1.0" encoding="UTF-8" standalone="no"?>
<!DOCTYPE svg PUBLIC "-//W3C//DTD SVG 1.1//EN" "http://www.w3.org/Graphics/SVG/1.1/DTD/svg11.dtd">
<svg width="100%" height="100%" viewBox="0 0 652 699" version="1.1" xmlns="http://www.w3.org/2000/svg" xmlns:xlink="http://www.w3.org/1999/xlink" xml:space="preserve" xmlns:serif="http://www.serif.com/" style="fill-rule:evenodd;clip-rule:evenodd;stroke-miterlimit:10;">
    <g transform="matrix(0.711571,0,0,0.711571,-27.5376,-28.4226)">
        <g id="Layer-2">
            <g>
                <path d="M367.72,244.395L356.674,216.281L356.673,188.465L364.091,168.431L392.544,153.86L429.147,151.648L467.994,157.528L507.262,151.648L540.121,156.548L577.404,184.518L621.828,218.36L644.127,251.663L648.267,312.781C648.267,312.781 641.548,333.165 637.963,348.904C637.02,353.04 640.475,372.909 640.475,372.909L632.883,390.344L634.621,411.66L622.831,432.8L622.929,446.38L635.727,460.004L621.679,469.478L596.813,472.31L589.993,432.955L583.514,418.923L594.186,415.102L602.026,406.752L604.195,385.145L616.597,369.311C616.597,369.311 618.207,363.997 618.64,357.874C618.967,353.245 618.365,347.716 617.342,346.151C615.174,342.835 614.38,338.81 611.362,336.294C607.84,333.357 602.228,332.189 602.228,332.189L586.53,337.559L569.338,350.205C567.408,354.639 567.823,363.376 565.679,371.83C563.393,380.843 560.409,390.344 560.409,390.344L554.949,421.03L557.022,429.741L505.058,468.772L472.048,486.852L448.515,492.585L421.588,501.498L400.114,503.545L388.624,494.266L376.951,476.582L366.343,453.176L358.477,424.1C358.477,424.1 358.48,416.762 358.539,413.783L372.221,438.928L384.049,443.215L399.039,450.569L421.588,434.381L439.415,429.504L466.439,424.1L481.987,402.542L505.058,384.098L529.184,379.194L551.475,362.969L552.701,310.395L532.053,274.615L530.992,251.501L507.729,227.225L482.295,219.033L454.834,207.973L423.929,212.619L400.114,211.225L384.211,221.786L367.72,244.395Z" style="fill:rgb(2,2,4);fill-rule:nonzero;stroke:black;stroke-width:2px;"/>
                <path d="M388.654,281.037L393.479,284.611L397.227,294.341L388.932,297.754L377.63,297.323L367.568,299.307L360.363,303.462C360.363,303.462 357.294,307.449 356.674,308.573L357.311,301.763L359.199,296.828L376.787,283.756L388.654,281.037Z" style="fill:rgb(2,2,4);fill-rule:nonzero;stroke:rgb(2,2,4);stroke-width:2px;"/>
                <path d="M425.005,275.778L421.588,280.815L423.063,287.448L426.231,292.741L440.858,287.867L456.883,284.54L476.097,284.566C476.097,284.566 497.088,287.474 505.058,291.153C505.058,291.153 499.177,284.066 492.02,278.879C486.308,274.74 475.241,270.471 475.241,270.471L456.584,268.666L437.2,269.691L425.005,275.778Z" style="fill:rgb(2,2,4);fill-rule:nonzero;stroke:rgb(2,2,4);stroke-width:2px;"/>
                <path d="M392.083,359.658L383.547,364.852L365.528,387.924L363.416,402.856L368.221,421.03L373.294,396.282L382.995,381.056L390.077,373.964L396.123,370.679L395.994,361.799L392.083,359.658Z" style="fill:rgb(2,2,4);fill-rule:nonzero;stroke:black;stroke-width:2px;"/>
                <path d="M398.356,361.662L398.456,370.366L413.982,373.7L434.351,387.077L451.564,416.931L452.039,394.786L445.098,379.904L431.537,367.228L412.764,359.658L403.898,357.874L398.356,361.662Z" style="fill:rgb(2,2,4);fill-rule:nonzero;stroke:black;stroke-width:2px;"/>
                <path d="M226.875,640.652L245.045,607.392L397.354,530.663L378.258,583.46L399.039,626.147L397.227,814.578L317.494,848.352L236.292,833.754L174.065,818.346L188.407,728.749L226.875,640.652Z" style="fill:rgb(2,2,4);fill-rule:nonzero;stroke:rgb(2,2,4);stroke-width:2px;"/>
                <path d="M595.015,484.975L470.031,812.06L578.617,834.435L703.467,812.061L813.449,828.654L823.223,692.191L797.326,605.155L731.175,569.824L633.257,536.28L595.015,484.975Z" style="fill:rgb(2,2,4);fill-rule:nonzero;stroke:rgb(2,2,4);stroke-width:2px;"/>
                <path d="M407.207,504.352L402.263,518.29L399.039,528.126L387.839,559.456L379.342,583.289L400.114,626.684L386.678,725.518L388.631,819.554L423.538,848.352L470.102,813.276L595.015,482.483L530.511,557.774L500,577.15L481.558,616.999L489.848,676.64L472.048,720.359L454.834,762.749L436.967,717.378L435.387,651.502L419.272,616.834L405.914,589.865L417.189,560.982L417.605,530.663L407.207,504.352Z" style="fill:rgb(221,221,221);fill-rule:nonzero;"/>
                <path d="M386.678,413.046L388.707,423.737L399.039,438.928L410.987,421.03L413.55,410.179L405.241,409.272L399.039,410.434L393.771,411.66L386.678,413.046Z" style="fill:rgb(2,2,4);fill-rule:nonzero;stroke:black;stroke-width:2px;"/>
            </g>
        </g>
    </g>
</svg>
