<?xml version="1.0" encoding="UTF-8" standalone="no"?>
<!DOCTYPE svg PUBLIC "-//W3C//DTD SVG 1.1//EN" "http://www.w3.org/Graphics/SVG/1.1/DTD/svg11.dtd">
<!-- Created with Vectornator (http://vectornator.io/) -->
<svg height="100%" stroke-miterlimit="10" style="fill-rule:nonzero;clip-rule:evenodd;stroke-linecap:round;stroke-linejoin:round;" version="1.1" viewBox="1802.09 954.279 18 18" width="100%" xml:space="preserve" xmlns="http://www.w3.org/2000/svg" xmlns:vectornator="http://vectornator.io" xmlns:xlink="http://www.w3.org/1999/xlink">
<defs/>
<clipPath id="ArtboardFrame">
<rect height="18" width="18" x="1802.09" y="954.279"/>
</clipPath>
<g clip-path="url(#ArtboardFrame)" id="Layer" vectornator:layerName="Layer">
<g opacity="1" vectornator:layerName="Instagram">
<path d="M1815.09 954.279L1807.09 954.279C1804.34 954.279 1802.09 956.522 1802.09 959.279L1802.09 967.279C1802.09 970.036 1804.34 972.279 1807.09 972.279L1815.09 972.279C1817.85 972.279 1820.09 970.036 1820.09 967.279L1820.09 959.279C1820.09 956.522 1817.85 954.279 1815.09 954.279ZM1818.09 967.279C1818.09 968.933 1816.75 970.279 1815.09 970.279L1807.09 970.279C1805.44 970.279 1804.09 968.933 1804.09 967.279L1804.09 959.279C1804.09 957.625 1805.44 956.279 1807.09 956.279L1815.09 956.279C1816.75 956.279 1818.09 957.625 1818.09 959.279L1818.09 967.279Z" fill="#f6f6f6" fill-rule="nonzero" opacity="1" stroke="none" vectornator:layerName="path"/>
<path d="M1811.09 958.279C1808.34 958.279 1806.09 960.522 1806.09 963.279C1806.09 966.036 1808.34 968.279 1811.09 968.279C1813.85 968.279 1816.09 966.036 1816.09 963.279C1816.09 960.522 1813.85 958.279 1811.09 958.279ZM1811.09 966.279C1809.44 966.279 1808.09 964.933 1808.09 963.279C1808.09 961.625 1809.44 960.279 1811.09 960.279C1812.75 960.279 1814.09 961.625 1814.09 963.279C1814.09 964.933 1812.75 966.279 1811.09 966.279ZM1816.09 957.279C1815.54 957.279 1815.09 957.727 1815.09 958.279C1815.09 958.831 1815.54 959.279 1816.09 959.279C1816.65 959.279 1817.09 958.831 1817.09 958.279C1817.09 957.727 1816.65 957.279 1816.09 957.279Z" fill="#f6f6f6" fill-rule="nonzero" opacity="1" stroke="none" vectornator:layerName="path"/>
</g>
</g>
</svg>
