<?xml version="1.0" encoding="UTF-8" standalone="no"?>
<!DOCTYPE svg PUBLIC "-//W3C//DTD SVG 1.1//EN" "http://www.w3.org/Graphics/SVG/1.1/DTD/svg11.dtd">
<!-- Created with Vectornator (http://vectornator.io/) -->
<svg height="100%" stroke-miterlimit="10" style="fill-rule:nonzero;clip-rule:evenodd;stroke-linecap:round;stroke-linejoin:round;" version="1.1" viewBox="1656.17 1014.32 18 18" width="100%" xml:space="preserve" xmlns="http://www.w3.org/2000/svg" xmlns:vectornator="http://vectornator.io" xmlns:xlink="http://www.w3.org/1999/xlink">
<defs/>
<clipPath id="ArtboardFrame">
<rect height="18" width="18" x="1656.17" y="1014.32"/>
</clipPath>
<g clip-path="url(#ArtboardFrame)" id="Layer" vectornator:layerName="Layer">
<g opacity="1" vectornator:layerName="Instagram">
<path d="M1669.17 1014.32L1661.17 1014.32C1658.41 1014.32 1656.17 1016.56 1656.17 1019.32L1656.17 1027.32C1656.17 1030.07 1658.41 1032.32 1661.17 1032.32L1669.17 1032.32C1671.92 1032.32 1674.17 1030.07 1674.17 1027.32L1674.17 1019.32C1674.17 1016.56 1671.92 1014.32 1669.17 1014.32ZM1672.17 1027.32C1672.17 1028.97 1670.82 1030.32 1669.17 1030.32L1661.17 1030.32C1659.51 1030.32 1658.17 1028.97 1658.17 1027.32L1658.17 1019.32C1658.17 1017.66 1659.51 1016.32 1661.17 1016.32L1669.17 1016.32C1670.82 1016.32 1672.17 1017.66 1672.17 1019.32L1672.17 1027.32Z" fill="#303030" fill-rule="nonzero" opacity="1" stroke="none" vectornator:layerName="path"/>
<path d="M1665.17 1018.32C1662.41 1018.32 1660.17 1020.56 1660.17 1023.32C1660.17 1026.07 1662.41 1028.32 1665.17 1028.32C1667.92 1028.32 1670.17 1026.07 1670.17 1023.32C1670.17 1020.56 1667.92 1018.32 1665.17 1018.32ZM1665.17 1026.32C1663.51 1026.32 1662.17 1024.97 1662.17 1023.32C1662.17 1021.66 1663.51 1020.32 1665.17 1020.32C1666.82 1020.32 1668.17 1021.66 1668.17 1023.32C1668.17 1024.97 1666.82 1026.32 1665.17 1026.32ZM1670.17 1017.32C1669.61 1017.32 1669.17 1017.77 1669.17 1018.32C1669.17 1018.87 1669.61 1019.32 1670.17 1019.32C1670.72 1019.32 1671.17 1018.87 1671.17 1018.32C1671.17 1017.77 1670.72 1017.32 1670.17 1017.32Z" fill="#303030" fill-rule="nonzero" opacity="1" stroke="none" vectornator:layerName="path"/>
</g>
</g>
</svg>
