<?xml version="1.0" encoding="UTF-8" standalone="no"?>
<!DOCTYPE svg PUBLIC "-//W3C//DTD SVG 1.1//EN" "http://www.w3.org/Graphics/SVG/1.1/DTD/svg11.dtd">
<svg width="100%" height="100%" viewBox="0 0 18 14" version="1.1" xmlns="http://www.w3.org/2000/svg" xmlns:xlink="http://www.w3.org/1999/xlink" xml:space="preserve" xmlns:serif="http://www.serif.com/" style="fill-rule:evenodd;clip-rule:evenodd;stroke-miterlimit:10;">
    <g transform="matrix(1,0,0,1.09091,-255.803,-1867.91)">
        <g id="Layer">
            <g>
                <g transform="matrix(1,0,0,0.916667,0,142.764)">
                    <path d="M271.803,1725.17L257.803,1725.17C257.251,1725.17 256.803,1724.72 256.803,1724.17L256.803,1714.17C256.803,1713.61 257.251,1713.17 257.803,1713.17L271.803,1713.17C272.355,1713.17 272.803,1713.61 272.803,1714.17L272.803,1724.17C272.803,1724.72 272.355,1725.17 271.803,1725.17Z" style="fill:none;fill-rule:nonzero;stroke:rgb(48,48,48);stroke-width:2px;"/>
                </g>
                <g transform="matrix(1,0,0,1,1.52767e-13,-1)">
                    <path d="M272.803,1714.17L264.803,1719.17L256.803,1714.17L256.803,1716.17L264.803,1721.17L272.803,1716.17L272.803,1714.17Z" style="fill:rgb(48,48,48);fill-rule:nonzero;"/>
                </g>
            </g>
        </g>
    </g>
</svg>
