<?xml version="1.0" encoding="UTF-8" standalone="no"?>
<!DOCTYPE svg PUBLIC "-//W3C//DTD SVG 1.1//EN" "http://www.w3.org/Graphics/SVG/1.1/DTD/svg11.dtd">
<svg width="100%" height="100%" viewBox="0 0 800 800" version="1.1" xmlns="http://www.w3.org/2000/svg" xmlns:xlink="http://www.w3.org/1999/xlink" xml:space="preserve" xmlns:serif="http://www.serif.com/" style="fill-rule:evenodd;clip-rule:evenodd;stroke-linecap:round;stroke-linejoin:round;">
    <g id="SVGRepo_iconCarrier" transform="matrix(-1.3776,0,0,1.3776,951.04,-151.04)">
        <path d="M654.237,216.384C654.237,458.203 458.203,654.237 216.384,654.237C205.474,654.237 194.657,653.839 183.947,653.054C171.656,652.153 165.51,651.703 159.916,648.483C155.283,645.816 150.889,641.088 148.566,636.271C145.763,630.458 145.763,623.675 145.763,610.113L145.763,530.528C145.763,519.121 145.763,513.418 147.64,508.531C149.298,504.212 151.991,500.367 155.483,497.333C159.436,493.898 164.795,491.949 175.514,488.051L266.103,455.11C278.574,450.576 284.81,448.308 290.726,448.692C295.943,449.031 300.963,450.814 305.228,453.836C310.064,457.263 313.478,462.952 320.306,474.333L343.503,512.994C418.359,479.093 479.042,418.331 512.994,343.503L474.333,320.306C462.952,313.478 457.263,310.064 453.836,305.228C450.814,300.963 449.031,295.943 448.692,290.726C448.308,284.81 450.576,278.574 455.11,266.103L488.051,175.514C491.949,164.795 493.898,159.436 497.333,155.483C500.367,151.991 504.212,149.298 508.531,147.64C513.418,145.763 519.121,145.763 530.528,145.763L610.113,145.763C623.675,145.763 630.458,145.763 636.271,148.566C641.088,150.889 645.816,155.283 648.483,159.916C651.703,165.51 652.153,171.656 653.054,183.947C653.839,194.657 654.237,205.474 654.237,216.384Z" style="fill:none;fill-rule:nonzero;stroke:rgb(48,48,48);stroke-width:67.8px;"/>
    </g>
</svg>
