<?xml version="1.0" encoding="UTF-8" standalone="no"?>
<!DOCTYPE svg PUBLIC "-//W3C//DTD SVG 1.1//EN" "http://www.w3.org/Graphics/SVG/1.1/DTD/svg11.dtd">
<svg width="100%" height="100%" viewBox="0 0 1000 1000" version="1.1" xmlns="http://www.w3.org/2000/svg" xmlns:xlink="http://www.w3.org/1999/xlink" xml:space="preserve" xmlns:serif="http://www.serif.com/" style="fill-rule:evenodd;clip-rule:evenodd;stroke-linejoin:round;stroke-miterlimit:2;">
    <g transform="matrix(1,0,0,1,-235.329,-206.076)">
        <g transform="matrix(214.991,0,0,214.991,222,357)">
            <path d="M0.597,-0.476C0.597,-0.435 0.588,-0.398 0.569,-0.365C0.55,-0.331 0.522,-0.304 0.483,-0.283C0.444,-0.262 0.396,-0.252 0.339,-0.252L0.233,-0.252L0.233,0L0.062,0L0.062,-0.702L0.339,-0.702C0.395,-0.702 0.442,-0.692 0.481,-0.673C0.52,-0.654 0.549,-0.627 0.568,-0.593C0.587,-0.559 0.597,-0.52 0.597,-0.476ZM0.326,-0.388C0.359,-0.388 0.383,-0.396 0.399,-0.411C0.415,-0.426 0.423,-0.448 0.423,-0.476C0.423,-0.504 0.415,-0.526 0.399,-0.541C0.383,-0.556 0.359,-0.564 0.326,-0.564L0.233,-0.564L0.233,-0.388L0.326,-0.388Z" style="fill-rule:nonzero;"/>
        </g>
    </g>
    <g transform="matrix(1,0,0,1,378.702,-207.581)">
        <g transform="matrix(214.991,0,0,214.991,222,357)">
            <path d="M0.394,0.007C0.328,0.007 0.268,-0.008 0.213,-0.039C0.158,-0.07 0.114,-0.113 0.082,-0.168C0.049,-0.223 0.033,-0.284 0.033,-0.353C0.033,-0.422 0.049,-0.483 0.082,-0.538C0.114,-0.593 0.158,-0.635 0.213,-0.666C0.268,-0.697 0.328,-0.712 0.394,-0.712C0.46,-0.712 0.521,-0.697 0.576,-0.666C0.631,-0.635 0.674,-0.593 0.706,-0.538C0.737,-0.483 0.753,-0.422 0.753,-0.353C0.753,-0.284 0.737,-0.223 0.705,-0.168C0.673,-0.113 0.63,-0.07 0.575,-0.039C0.52,-0.008 0.46,0.007 0.394,0.007ZM0.394,-0.149C0.45,-0.149 0.495,-0.168 0.529,-0.205C0.562,-0.242 0.579,-0.292 0.579,-0.353C0.579,-0.415 0.562,-0.464 0.529,-0.502C0.495,-0.539 0.45,-0.557 0.394,-0.557C0.337,-0.557 0.292,-0.539 0.259,-0.502C0.225,-0.465 0.208,-0.416 0.208,-0.353C0.208,-0.291 0.225,-0.242 0.259,-0.205C0.292,-0.167 0.337,-0.149 0.394,-0.149Z" style="fill-rule:nonzero;"/>
        </g>
    </g>
    <g transform="matrix(1,0,0,1,421.138,115.045)">
        <g transform="matrix(214.991,0,0,214.991,222,357)">
            <path d="M0.42,0L0.274,-0.265L0.233,-0.265L0.233,0L0.062,0L0.062,-0.702L0.349,-0.702C0.404,-0.702 0.452,-0.692 0.491,-0.673C0.53,-0.654 0.559,-0.627 0.578,-0.594C0.597,-0.56 0.607,-0.522 0.607,-0.481C0.607,-0.434 0.594,-0.393 0.568,-0.356C0.541,-0.319 0.502,-0.293 0.451,-0.278L0.613,0L0.42,0ZM0.233,-0.386L0.339,-0.386C0.37,-0.386 0.394,-0.394 0.41,-0.409C0.425,-0.424 0.433,-0.446 0.433,-0.474C0.433,-0.501 0.425,-0.522 0.41,-0.537C0.394,-0.552 0.37,-0.56 0.339,-0.56L0.233,-0.56L0.233,-0.386Z" style="fill-rule:nonzero;"/>
        </g>
    </g>
    <g transform="matrix(1,0,0,1,30.1552,643)">
        <g transform="matrix(214.991,0,0,214.991,222,357)">
            <path d="M0.567,-0.702L0.567,-0.565L0.381,-0.565L0.381,0L0.21,0L0.21,-0.565L0.024,-0.565L0.024,-0.702L0.567,-0.702Z" style="fill-rule:nonzero;"/>
        </g>
    </g>
    <g transform="matrix(1,0,0,1,-9.25722,115.045)">
        <g transform="matrix(214.991,0,0,214.991,222,357)">
            <path d="M0.519,-0.702L0.519,-0.565L0.233,-0.565L0.233,-0.417L0.447,-0.417L0.447,-0.284L0.233,-0.284L0.233,0L0.062,0L0.062,-0.702L0.519,-0.702Z" style="fill-rule:nonzero;"/>
        </g>
    </g>
    <g transform="matrix(1,0,0,1,-229.095,373.326)">
        <g transform="matrix(214.991,0,0,214.991,222,357)">
            <path d="M0.394,0.007C0.328,0.007 0.268,-0.008 0.213,-0.039C0.158,-0.07 0.114,-0.113 0.082,-0.168C0.049,-0.223 0.033,-0.284 0.033,-0.353C0.033,-0.422 0.049,-0.483 0.082,-0.538C0.114,-0.593 0.158,-0.635 0.213,-0.666C0.268,-0.697 0.328,-0.712 0.394,-0.712C0.46,-0.712 0.521,-0.697 0.576,-0.666C0.631,-0.635 0.674,-0.593 0.706,-0.538C0.737,-0.483 0.753,-0.422 0.753,-0.353C0.753,-0.284 0.737,-0.223 0.705,-0.168C0.673,-0.113 0.63,-0.07 0.575,-0.039C0.52,-0.008 0.46,0.007 0.394,0.007ZM0.394,-0.149C0.45,-0.149 0.495,-0.168 0.529,-0.205C0.562,-0.242 0.579,-0.292 0.579,-0.353C0.579,-0.415 0.562,-0.464 0.529,-0.502C0.495,-0.539 0.45,-0.557 0.394,-0.557C0.337,-0.557 0.292,-0.539 0.259,-0.502C0.225,-0.465 0.208,-0.416 0.208,-0.353C0.208,-0.291 0.225,-0.242 0.259,-0.205C0.292,-0.167 0.337,-0.149 0.394,-0.149Z" style="fill-rule:nonzero;"/>
        </g>
    </g>
    <g transform="matrix(1,0,0,1,616.112,-47.7869)">
        <g transform="matrix(214.991,0,0,214.991,222,357)">
            <path d="M0.394,0.007C0.328,0.007 0.268,-0.008 0.213,-0.039C0.158,-0.07 0.114,-0.113 0.082,-0.168C0.049,-0.223 0.033,-0.284 0.033,-0.353C0.033,-0.422 0.049,-0.483 0.082,-0.538C0.114,-0.593 0.158,-0.635 0.213,-0.666C0.268,-0.697 0.328,-0.712 0.394,-0.712C0.46,-0.712 0.521,-0.697 0.576,-0.666C0.631,-0.635 0.674,-0.593 0.706,-0.538C0.737,-0.483 0.753,-0.422 0.753,-0.353C0.753,-0.284 0.737,-0.223 0.705,-0.168C0.673,-0.113 0.63,-0.07 0.575,-0.039C0.52,-0.008 0.46,0.007 0.394,0.007ZM0.394,-0.149C0.45,-0.149 0.495,-0.168 0.529,-0.205C0.562,-0.242 0.579,-0.292 0.579,-0.353C0.579,-0.415 0.562,-0.464 0.529,-0.502C0.495,-0.539 0.45,-0.557 0.394,-0.557C0.337,-0.557 0.292,-0.539 0.259,-0.502C0.225,-0.465 0.208,-0.416 0.208,-0.353C0.208,-0.291 0.225,-0.242 0.259,-0.205C0.292,-0.167 0.337,-0.149 0.394,-0.149Z" style="fill-rule:nonzero;"/>
        </g>
    </g>
    <g transform="matrix(1,0,0,1,487.105,373.004)">
        <g transform="matrix(214.991,0,0,214.991,222,357)">
            <path d="M0.233,-0.132L0.457,-0.132L0.457,0L0.062,0L0.062,-0.702L0.233,-0.702L0.233,-0.132Z" style="fill-rule:nonzero;"/>
        </g>
    </g>
    <g transform="matrix(1,0,0,1,727.907,373.004)">
        <g transform="matrix(214.991,0,0,214.991,222,357)">
            <rect x="0.062" y="-0.702" width="0.171" height="0.702" style="fill-rule:nonzero;"/>
        </g>
    </g>
    <g transform="matrix(0.961538,0,0,1.00932,3.26923,16.3797)">
        <ellipse cx="85" cy="899.769" rx="26" ry="24.769"/>
    </g>
    <g transform="matrix(0.961538,0,0,1.00932,-21.7308,-511.575)">
        <ellipse cx="85" cy="899.769" rx="26" ry="24.769"/>
    </g>
    <g transform="matrix(0.961538,0,0,1.00932,-21.7308,-674.73)">
        <ellipse cx="85" cy="899.769" rx="26" ry="24.769"/>
    </g>
    <g transform="matrix(0.961538,0,0,1.00932,180.821,-674.73)">
        <ellipse cx="85" cy="899.769" rx="26" ry="24.769"/>
    </g>
    <g transform="matrix(0.961538,0,0,1.00932,383.372,-674.73)">
        <ellipse cx="85" cy="899.769" rx="26" ry="24.769"/>
    </g>
    <g transform="matrix(0.961538,0,0,1.00932,585.924,-674.73)">
        <ellipse cx="85" cy="899.769" rx="26" ry="24.769"/>
    </g>
    <g transform="matrix(0.961538,0,0,1.00932,188.586,-830.089)">
        <ellipse cx="85" cy="899.769" rx="26" ry="24.769"/>
    </g>
    <g transform="matrix(0.961538,0,0,1.00932,368.883,-830.089)">
        <ellipse cx="85" cy="899.769" rx="26" ry="24.769"/>
    </g>
    <g transform="matrix(0.961538,0,0,1.00932,834.269,-830.089)">
        <ellipse cx="85" cy="899.769" rx="26" ry="24.769"/>
    </g>
    <g transform="matrix(0.961538,0,0,1.00932,859.269,-511.575)">
        <ellipse cx="85" cy="899.769" rx="26" ry="24.769"/>
    </g>
    <g transform="matrix(0.961538,0,0,1.00932,859.269,16.3797)">
        <ellipse cx="85" cy="899.769" rx="26" ry="24.769"/>
    </g>
    <g transform="matrix(0.961538,0,0,1.00932,661.954,16.3797)">
        <ellipse cx="85" cy="899.769" rx="26" ry="24.769"/>
    </g>
    <g transform="matrix(0.961538,0,0,1.00932,464.639,16.3797)">
        <ellipse cx="85" cy="899.769" rx="26" ry="24.769"/>
    </g>
    <g transform="matrix(0.961538,0,0,1.00932,253.943,-253.617)">
        <ellipse cx="85" cy="899.769" rx="26" ry="24.769"/>
    </g>
    <g transform="matrix(0.961538,0,0,1.00932,459.824,-253.617)">
        <ellipse cx="85" cy="899.769" rx="26" ry="24.769"/>
    </g>
    <g transform="matrix(0.961538,0,0,1.00932,408.665,-511.575)">
        <ellipse cx="85" cy="899.769" rx="26" ry="24.769"/>
    </g>
</svg>
