<?xml version="1.0" encoding="UTF-8" standalone="no"?>
<!DOCTYPE svg PUBLIC "-//W3C//DTD SVG 1.1//EN" "http://www.w3.org/Graphics/SVG/1.1/DTD/svg11.dtd">
<!-- Created with Vectornator (http://vectornator.io/) -->
<svg height="100%" stroke-miterlimit="10" style="fill-rule:nonzero;clip-rule:evenodd;stroke-linecap:round;stroke-linejoin:round;" version="1.1" viewBox="347.686 297.588 352.82 352.82" width="100%" xml:space="preserve" xmlns="http://www.w3.org/2000/svg" xmlns:vectornator="http://vectornator.io" xmlns:xlink="http://www.w3.org/1999/xlink">
<defs/>
<g id="Layer-1" vectornator:layerName="Layer 1">
<g opacity="1" vectornator:layerName="Group 19">
<g opacity="1" vectornator:layerName="Group 2">
<g opacity="1" vectornator:layerName="Shoe Print 1">
<path d="M552.989 456.582C550.11 456.582 547.781 455.707 546.068 453.98C543.365 451.254 542.826 447.026 542.851 443.958C542.853 443.674 542.976 443.405 543.188 443.217C543.4 443.029 543.685 442.939 543.965 442.973C543.985 442.975 546.036 443.206 548.594 443.206C549.681 443.206 550.71 443.165 551.653 443.083C554.544 442.832 556.627 442.245 557.517 441.994L557.899 441.889C558.427 441.752 558.97 442.068 559.114 442.598C560.364 447.239 559.911 451.427 557.872 454.087C556.638 455.696 554.904 456.582 552.989 456.582ZM542.645 435.553C542.511 435.553 542.376 435.526 542.25 435.472C541.991 435.361 541.792 435.146 541.7 434.879C541.626 434.664 539.883 429.562 539.796 425.168C539.692 419.845 540.874 412.838 544.504 409.137C546.166 407.441 548.17 406.582 550.462 406.582C552.947 406.582 555.071 407.512 556.775 409.347C560.141 412.974 560.992 419.265 560.742 422.609C560.314 428.34 558.035 433.712 557.938 433.937C557.75 434.375 557.281 434.621 556.813 434.522C556.77 434.513 552.16 433.551 550.033 433.701C547.957 433.854 544.894 434.629 543.06 435.463C542.928 435.522 542.786 435.553 542.645 435.553Z" fill="#000000" fill-rule="nonzero" opacity="1" stroke="none" vectornator:layerName="path"/>
</g>
<g opacity="1" vectornator:layerName="Shoe Print">
<path d="M577.013 456.582C579.892 456.582 582.221 455.707 583.934 453.98C586.637 451.254 587.176 447.026 587.151 443.958C587.149 443.674 587.026 443.405 586.814 443.217C586.602 443.029 586.317 442.939 586.037 442.973C586.017 442.975 583.966 443.206 581.408 443.206C580.321 443.206 579.292 443.165 578.349 443.083C575.458 442.832 573.375 442.245 572.485 441.994L572.103 441.889C571.575 441.752 571.032 442.068 570.888 442.598C569.638 447.239 570.091 451.427 572.13 454.087C573.364 455.696 575.098 456.582 577.013 456.582ZM587.357 435.553C587.491 435.553 587.626 435.526 587.752 435.472C588.011 435.361 588.21 435.146 588.302 434.879C588.376 434.664 590.119 429.562 590.206 425.168C590.31 419.845 589.128 412.838 585.498 409.137C583.836 407.441 581.832 406.582 579.54 406.582C577.055 406.582 574.931 407.512 573.227 409.347C569.861 412.974 569.01 419.265 569.26 422.609C569.688 428.34 571.967 433.712 572.064 433.937C572.252 434.375 572.721 434.621 573.189 434.522C573.232 434.513 577.842 433.551 579.969 433.701C582.045 433.854 585.108 434.629 586.942 435.463C587.074 435.522 587.216 435.553 587.357 435.553Z" fill="#000000" fill-rule="nonzero" opacity="1" stroke="none" vectornator:layerName="path"/>
</g>
</g>
<g opacity="1" vectornator:layerName="Group 7">
<g opacity="1" vectornator:layerName="Shoe Print 1">
<path d="M473.4 543.414C470.521 543.414 468.192 542.539 466.479 540.812C463.776 538.086 463.237 533.858 463.262 530.79C463.264 530.506 463.387 530.237 463.599 530.049C463.811 529.861 464.096 529.771 464.376 529.805C464.396 529.807 466.447 530.038 469.005 530.038C470.092 530.038 471.121 529.997 472.064 529.915C474.955 529.664 477.038 529.077 477.928 528.826L478.31 528.721C478.838 528.584 479.381 528.9 479.525 529.43C480.775 534.071 480.322 538.259 478.283 540.919C477.049 542.528 475.315 543.414 473.4 543.414ZM463.056 522.385C462.922 522.385 462.787 522.358 462.661 522.304C462.402 522.193 462.203 521.978 462.111 521.711C462.037 521.496 460.294 516.394 460.207 512C460.103 506.677 461.285 499.67 464.915 495.969C466.577 494.273 468.581 493.414 470.873 493.414C473.358 493.414 475.482 494.344 477.186 496.179C480.552 499.806 481.403 506.097 481.153 509.441C480.725 515.172 478.446 520.544 478.349 520.769C478.161 521.207 477.692 521.453 477.224 521.354C477.181 521.345 472.571 520.383 470.444 520.533C468.368 520.686 465.305 521.461 463.471 522.295C463.339 522.354 463.197 522.385 463.056 522.385Z" fill="#dddddd" fill-rule="nonzero" opacity="1" stroke="none" vectornator:layerName="path"/>
</g>
<g opacity="1" vectornator:layerName="Shoe Print">
<path d="M497.425 543.414C500.304 543.414 502.633 542.539 504.346 540.812C507.049 538.086 507.588 533.858 507.563 530.79C507.561 530.506 507.438 530.237 507.226 530.049C507.014 529.861 506.729 529.771 506.449 529.805C506.429 529.807 504.378 530.038 501.82 530.038C500.733 530.038 499.704 529.997 498.761 529.915C495.87 529.664 493.787 529.077 492.897 528.826L492.515 528.721C491.987 528.584 491.444 528.9 491.3 529.43C490.05 534.071 490.503 538.259 492.542 540.919C493.776 542.528 495.51 543.414 497.425 543.414ZM507.769 522.385C507.903 522.385 508.038 522.358 508.164 522.304C508.423 522.193 508.622 521.978 508.714 521.711C508.788 521.496 510.531 516.394 510.618 512C510.722 506.677 509.54 499.67 505.91 495.969C504.248 494.273 502.244 493.414 499.952 493.414C497.467 493.414 495.343 494.344 493.639 496.179C490.273 499.806 489.422 506.097 489.672 509.441C490.1 515.172 492.379 520.544 492.476 520.769C492.664 521.207 493.133 521.453 493.601 521.354C493.644 521.345 498.254 520.383 500.381 520.533C502.457 520.686 505.52 521.461 507.354 522.295C507.486 522.354 507.628 522.385 507.769 522.385Z" fill="#dddddd" fill-rule="nonzero" opacity="1" stroke="none" vectornator:layerName="path"/>
</g>
</g>
<g opacity="1" vectornator:layerName="Group 8">
<g opacity="1" vectornator:layerName="Shoe Print 1">
<path d="M552.989 543.414C550.11 543.414 547.781 542.539 546.068 540.812C543.365 538.086 542.826 533.858 542.851 530.79C542.853 530.506 542.976 530.237 543.188 530.049C543.4 529.861 543.685 529.771 543.965 529.805C543.985 529.807 546.036 530.038 548.594 530.038C549.681 530.038 550.71 529.997 551.653 529.915C554.544 529.664 556.627 529.077 557.517 528.826L557.899 528.721C558.427 528.584 558.97 528.9 559.114 529.43C560.364 534.071 559.911 538.259 557.872 540.919C556.638 542.528 554.904 543.414 552.989 543.414ZM542.645 522.385C542.511 522.385 542.376 522.358 542.25 522.304C541.991 522.193 541.792 521.978 541.7 521.711C541.626 521.496 539.883 516.394 539.796 512C539.692 506.677 540.874 499.67 544.504 495.969C546.166 494.273 548.17 493.414 550.462 493.414C552.947 493.414 555.071 494.344 556.775 496.179C560.141 499.806 560.992 506.097 560.742 509.441C560.314 515.172 558.035 520.544 557.938 520.769C557.75 521.207 557.281 521.453 556.813 521.354C556.77 521.345 552.16 520.383 550.033 520.533C547.957 520.686 544.894 521.461 543.06 522.295C542.928 522.354 542.786 522.385 542.645 522.385Z" fill="#dddddd" fill-rule="nonzero" opacity="1" stroke="none" vectornator:layerName="path"/>
</g>
<g opacity="1" vectornator:layerName="Shoe Print">
<path d="M577.013 543.414C579.892 543.414 582.221 542.539 583.934 540.812C586.637 538.086 587.176 533.858 587.151 530.79C587.149 530.506 587.026 530.237 586.814 530.049C586.602 529.861 586.317 529.771 586.037 529.805C586.017 529.807 583.966 530.038 581.408 530.038C580.321 530.038 579.292 529.997 578.349 529.915C575.458 529.664 573.375 529.077 572.485 528.826L572.103 528.721C571.575 528.584 571.032 528.9 570.888 529.43C569.638 534.071 570.091 538.259 572.13 540.919C573.364 542.528 575.098 543.414 577.013 543.414ZM587.357 522.385C587.491 522.385 587.626 522.358 587.752 522.304C588.011 522.193 588.21 521.978 588.302 521.711C588.376 521.496 590.119 516.394 590.206 512C590.31 506.677 589.128 499.67 585.498 495.969C583.836 494.273 581.832 493.414 579.54 493.414C577.055 493.414 574.931 494.344 573.227 496.179C569.861 499.806 569.01 506.097 569.26 509.441C569.688 515.172 571.967 520.544 572.064 520.769C572.252 521.207 572.721 521.453 573.189 521.354C573.232 521.345 577.842 520.383 579.969 520.533C582.045 520.686 585.108 521.461 586.942 522.295C587.074 522.354 587.216 522.385 587.357 522.385Z" fill="#dddddd" fill-rule="nonzero" opacity="1" stroke="none" vectornator:layerName="path"/>
</g>
</g>
<g opacity="1" vectornator:layerName="Group 9">
<g opacity="1" vectornator:layerName="Shoe Print 1">
<path d="M632.577 543.414C629.698 543.414 627.369 542.539 625.656 540.812C622.953 538.086 622.414 533.858 622.439 530.79C622.441 530.506 622.564 530.237 622.776 530.049C622.988 529.861 623.273 529.771 623.553 529.805C623.573 529.807 625.624 530.038 628.182 530.038C629.269 530.038 630.298 529.997 631.241 529.915C634.132 529.664 636.215 529.077 637.105 528.826L637.487 528.721C638.015 528.584 638.558 528.9 638.702 529.43C639.952 534.071 639.499 538.259 637.46 540.919C636.226 542.528 634.492 543.414 632.577 543.414ZM622.233 522.385C622.099 522.385 621.964 522.358 621.838 522.304C621.579 522.193 621.38 521.978 621.288 521.711C621.214 521.496 619.471 516.394 619.384 512C619.28 506.677 620.462 499.67 624.092 495.969C625.754 494.273 627.758 493.414 630.05 493.414C632.535 493.414 634.659 494.344 636.363 496.179C639.729 499.806 640.58 506.097 640.33 509.441C639.902 515.172 637.623 520.544 637.526 520.769C637.338 521.207 636.869 521.453 636.401 521.354C636.358 521.345 631.748 520.383 629.621 520.533C627.545 520.686 624.482 521.461 622.648 522.295C622.516 522.354 622.374 522.385 622.233 522.385Z" fill="#dddddd" fill-rule="nonzero" opacity="1" stroke="none" vectornator:layerName="path"/>
</g>
<g opacity="1" vectornator:layerName="Shoe Print">
<path d="M656.601 543.414C659.48 543.414 661.809 542.539 663.522 540.812C666.225 538.086 666.764 533.858 666.739 530.79C666.737 530.506 666.614 530.237 666.402 530.049C666.19 529.861 665.905 529.771 665.625 529.805C665.605 529.807 663.554 530.038 660.996 530.038C659.909 530.038 658.88 529.997 657.937 529.915C655.046 529.664 652.963 529.077 652.073 528.826L651.691 528.721C651.163 528.584 650.62 528.9 650.476 529.43C649.226 534.071 649.679 538.259 651.718 540.919C652.952 542.528 654.686 543.414 656.601 543.414ZM666.945 522.385C667.079 522.385 667.214 522.358 667.34 522.304C667.599 522.193 667.798 521.978 667.89 521.711C667.964 521.496 669.707 516.394 669.794 512C669.898 506.677 668.716 499.67 665.086 495.969C663.424 494.273 661.42 493.414 659.128 493.414C656.643 493.414 654.519 494.344 652.815 496.179C649.449 499.806 648.598 506.097 648.848 509.441C649.276 515.172 651.555 520.544 651.652 520.769C651.84 521.207 652.309 521.453 652.777 521.354C652.82 521.345 657.43 520.383 659.557 520.533C661.633 520.686 664.696 521.461 666.53 522.295C666.662 522.354 666.804 522.385 666.945 522.385Z" fill="#dddddd" fill-rule="nonzero" opacity="1" stroke="none" vectornator:layerName="path"/>
</g>
</g>
<g opacity="1" vectornator:layerName="Group 10">
<g opacity="1" vectornator:layerName="Shoe Print 1">
<path d="M632.577 456.582C629.698 456.582 627.369 455.707 625.656 453.98C622.953 451.254 622.414 447.026 622.439 443.958C622.441 443.674 622.564 443.405 622.776 443.217C622.988 443.029 623.273 442.939 623.553 442.973C623.573 442.975 625.624 443.206 628.182 443.206C629.269 443.206 630.298 443.165 631.241 443.083C634.132 442.832 636.215 442.245 637.105 441.994L637.487 441.889C638.015 441.752 638.558 442.068 638.702 442.598C639.952 447.239 639.499 451.427 637.46 454.087C636.226 455.696 634.492 456.582 632.577 456.582ZM622.233 435.553C622.099 435.553 621.964 435.526 621.838 435.472C621.579 435.361 621.38 435.146 621.288 434.879C621.214 434.664 619.471 429.562 619.384 425.168C619.28 419.845 620.462 412.838 624.092 409.137C625.754 407.441 627.758 406.582 630.05 406.582C632.535 406.582 634.659 407.512 636.363 409.347C639.729 412.974 640.58 419.265 640.33 422.609C639.902 428.34 637.623 433.712 637.526 433.937C637.338 434.375 636.869 434.621 636.401 434.522C636.358 434.513 631.748 433.551 629.621 433.701C627.545 433.854 624.482 434.629 622.648 435.463C622.516 435.522 622.374 435.553 622.233 435.553Z" fill="#dddddd" fill-rule="nonzero" opacity="1" stroke="none" vectornator:layerName="path"/>
</g>
<g opacity="1" vectornator:layerName="Shoe Print">
<path d="M656.601 456.582C659.48 456.582 661.809 455.707 663.522 453.98C666.225 451.254 666.764 447.026 666.739 443.958C666.737 443.674 666.614 443.405 666.402 443.217C666.19 443.029 665.905 442.939 665.625 442.973C665.605 442.975 663.554 443.206 660.996 443.206C659.909 443.206 658.88 443.165 657.937 443.083C655.046 442.832 652.963 442.245 652.073 441.994L651.691 441.889C651.163 441.752 650.62 442.068 650.476 442.598C649.226 447.239 649.679 451.427 651.718 454.087C652.952 455.696 654.686 456.582 656.601 456.582ZM666.945 435.553C667.079 435.553 667.214 435.526 667.34 435.472C667.599 435.361 667.798 435.146 667.89 434.879C667.964 434.664 669.707 429.562 669.794 425.168C669.898 419.845 668.716 412.838 665.086 409.137C663.424 407.441 661.42 406.582 659.128 406.582C656.643 406.582 654.519 407.512 652.815 409.347C649.449 412.974 648.598 419.265 648.848 422.609C649.276 428.34 651.555 433.712 651.652 433.937C651.84 434.375 652.309 434.621 652.777 434.522C652.82 434.513 657.43 433.551 659.557 433.701C661.633 433.854 664.696 434.629 666.53 435.463C666.662 435.522 666.804 435.553 666.945 435.553Z" fill="#dddddd" fill-rule="nonzero" opacity="1" stroke="none" vectornator:layerName="path"/>
</g>
</g>
<g opacity="1" vectornator:layerName="Group 11">
<g opacity="1" vectornator:layerName="Shoe Print 1">
<path d="M632.577 630.246C629.698 630.246 627.369 629.371 625.656 627.644C622.953 624.918 622.414 620.69 622.439 617.622C622.441 617.338 622.564 617.069 622.776 616.881C622.988 616.693 623.273 616.603 623.553 616.637C623.573 616.639 625.624 616.87 628.182 616.87C629.269 616.87 630.298 616.829 631.241 616.747C634.132 616.496 636.215 615.909 637.105 615.658L637.487 615.553C638.015 615.416 638.558 615.732 638.702 616.262C639.952 620.903 639.499 625.091 637.46 627.751C636.226 629.36 634.492 630.246 632.577 630.246ZM622.233 609.217C622.099 609.217 621.964 609.19 621.838 609.136C621.579 609.025 621.38 608.81 621.288 608.543C621.214 608.328 619.471 603.226 619.384 598.832C619.28 593.509 620.462 586.502 624.092 582.801C625.754 581.105 627.758 580.246 630.05 580.246C632.535 580.246 634.659 581.176 636.363 583.011C639.729 586.638 640.58 592.929 640.33 596.273C639.902 602.004 637.623 607.376 637.526 607.601C637.338 608.039 636.869 608.285 636.401 608.186C636.358 608.177 631.748 607.215 629.621 607.365C627.545 607.518 624.482 608.293 622.648 609.127C622.516 609.186 622.374 609.217 622.233 609.217Z" fill="#dddddd" fill-rule="nonzero" opacity="1" stroke="none" vectornator:layerName="path"/>
</g>
<g opacity="1" vectornator:layerName="Shoe Print">
<path d="M656.601 630.246C659.48 630.246 661.809 629.371 663.522 627.644C666.225 624.918 666.764 620.69 666.739 617.622C666.737 617.338 666.614 617.069 666.402 616.881C666.19 616.693 665.905 616.603 665.625 616.637C665.605 616.639 663.554 616.87 660.996 616.87C659.909 616.87 658.88 616.829 657.937 616.747C655.046 616.496 652.963 615.909 652.073 615.658L651.691 615.553C651.163 615.416 650.62 615.732 650.476 616.262C649.226 620.903 649.679 625.091 651.718 627.751C652.952 629.36 654.686 630.246 656.601 630.246ZM666.945 609.217C667.079 609.217 667.214 609.19 667.34 609.136C667.599 609.025 667.798 608.81 667.89 608.543C667.964 608.328 669.707 603.226 669.794 598.832C669.898 593.509 668.716 586.502 665.086 582.801C663.424 581.105 661.42 580.246 659.128 580.246C656.643 580.246 654.519 581.176 652.815 583.011C649.449 586.638 648.598 592.929 648.848 596.273C649.276 602.004 651.555 607.376 651.652 607.601C651.84 608.039 652.309 608.285 652.777 608.186C652.82 608.177 657.43 607.215 659.557 607.365C661.633 607.518 664.696 608.293 666.53 609.127C666.662 609.186 666.804 609.217 666.945 609.217Z" fill="#dddddd" fill-rule="nonzero" opacity="1" stroke="none" vectornator:layerName="path"/>
</g>
</g>
<g opacity="1" vectornator:layerName="Group 12">
<g opacity="1" vectornator:layerName="Shoe Print 1">
<path d="M552.989 630.246C550.11 630.246 547.781 629.371 546.068 627.644C543.365 624.918 542.826 620.69 542.851 617.622C542.853 617.338 542.976 617.069 543.188 616.881C543.4 616.693 543.685 616.603 543.965 616.637C543.985 616.639 546.036 616.87 548.594 616.87C549.681 616.87 550.71 616.829 551.653 616.747C554.544 616.496 556.627 615.909 557.517 615.658L557.899 615.553C558.427 615.416 558.97 615.732 559.114 616.262C560.364 620.903 559.911 625.091 557.872 627.751C556.638 629.36 554.904 630.246 552.989 630.246ZM542.645 609.217C542.511 609.217 542.376 609.19 542.25 609.136C541.991 609.025 541.792 608.81 541.7 608.543C541.626 608.328 539.883 603.226 539.796 598.832C539.692 593.509 540.874 586.502 544.504 582.801C546.166 581.105 548.17 580.246 550.462 580.246C552.947 580.246 555.071 581.176 556.775 583.011C560.141 586.638 560.992 592.929 560.742 596.273C560.314 602.004 558.035 607.376 557.938 607.601C557.75 608.039 557.281 608.285 556.813 608.186C556.77 608.177 552.16 607.215 550.033 607.365C547.957 607.518 544.894 608.293 543.06 609.127C542.928 609.186 542.786 609.217 542.645 609.217Z" fill="#dddddd" fill-rule="nonzero" opacity="1" stroke="none" vectornator:layerName="path"/>
</g>
<g opacity="1" vectornator:layerName="Shoe Print">
<path d="M577.013 630.246C579.892 630.246 582.221 629.371 583.934 627.644C586.637 624.918 587.176 620.69 587.151 617.622C587.149 617.338 587.026 617.069 586.814 616.881C586.602 616.693 586.317 616.603 586.037 616.637C586.017 616.639 583.966 616.87 581.408 616.87C580.321 616.87 579.292 616.829 578.349 616.747C575.458 616.496 573.375 615.909 572.485 615.658L572.103 615.553C571.575 615.416 571.032 615.732 570.888 616.262C569.638 620.903 570.091 625.091 572.13 627.751C573.364 629.36 575.098 630.246 577.013 630.246ZM587.357 609.217C587.491 609.217 587.626 609.19 587.752 609.136C588.011 609.025 588.21 608.81 588.302 608.543C588.376 608.328 590.119 603.226 590.206 598.832C590.31 593.509 589.128 586.502 585.498 582.801C583.836 581.105 581.832 580.246 579.54 580.246C577.055 580.246 574.931 581.176 573.227 583.011C569.861 586.638 569.01 592.929 569.26 596.273C569.688 602.004 571.967 607.376 572.064 607.601C572.252 608.039 572.721 608.285 573.189 608.186C573.232 608.177 577.842 607.215 579.969 607.365C582.045 607.518 585.108 608.293 586.942 609.127C587.074 609.186 587.216 609.217 587.357 609.217Z" fill="#dddddd" fill-rule="nonzero" opacity="1" stroke="none" vectornator:layerName="path"/>
</g>
</g>
<g opacity="1" vectornator:layerName="Group 13">
<g opacity="1" vectornator:layerName="Shoe Print 1">
<path d="M473.4 630.246C470.521 630.246 468.192 629.371 466.479 627.644C463.776 624.918 463.237 620.69 463.262 617.622C463.264 617.338 463.387 617.069 463.599 616.881C463.811 616.693 464.096 616.603 464.376 616.637C464.396 616.639 466.447 616.87 469.005 616.87C470.092 616.87 471.121 616.829 472.064 616.747C474.955 616.496 477.038 615.909 477.928 615.658L478.31 615.553C478.838 615.416 479.381 615.732 479.525 616.262C480.775 620.903 480.322 625.091 478.283 627.751C477.049 629.36 475.315 630.246 473.4 630.246ZM463.056 609.217C462.922 609.217 462.787 609.19 462.661 609.136C462.402 609.025 462.203 608.81 462.111 608.543C462.037 608.328 460.294 603.226 460.207 598.832C460.103 593.509 461.285 586.502 464.915 582.801C466.577 581.105 468.581 580.246 470.873 580.246C473.358 580.246 475.482 581.176 477.186 583.011C480.552 586.638 481.403 592.929 481.153 596.273C480.725 602.004 478.446 607.376 478.349 607.601C478.161 608.039 477.692 608.285 477.224 608.186C477.181 608.177 472.571 607.215 470.444 607.365C468.368 607.518 465.305 608.293 463.471 609.127C463.339 609.186 463.197 609.217 463.056 609.217Z" fill="#dddddd" fill-rule="nonzero" opacity="1" stroke="none" vectornator:layerName="path"/>
</g>
<g opacity="1" vectornator:layerName="Shoe Print">
<path d="M497.425 630.246C500.304 630.246 502.633 629.371 504.346 627.644C507.049 624.918 507.588 620.69 507.563 617.622C507.561 617.338 507.438 617.069 507.226 616.881C507.014 616.693 506.729 616.603 506.449 616.637C506.429 616.639 504.378 616.87 501.82 616.87C500.733 616.87 499.704 616.829 498.761 616.747C495.87 616.496 493.787 615.909 492.897 615.658L492.515 615.553C491.987 615.416 491.444 615.732 491.3 616.262C490.05 620.903 490.503 625.091 492.542 627.751C493.776 629.36 495.51 630.246 497.425 630.246ZM507.769 609.217C507.903 609.217 508.038 609.19 508.164 609.136C508.423 609.025 508.622 608.81 508.714 608.543C508.788 608.328 510.531 603.226 510.618 598.832C510.722 593.509 509.54 586.502 505.91 582.801C504.248 581.105 502.244 580.246 499.952 580.246C497.467 580.246 495.343 581.176 493.639 583.011C490.273 586.638 489.422 592.929 489.672 596.273C490.1 602.004 492.379 607.376 492.476 607.601C492.664 608.039 493.133 608.285 493.601 608.186C493.644 608.177 498.254 607.215 500.381 607.365C502.457 607.518 505.52 608.293 507.354 609.127C507.486 609.186 507.628 609.217 507.769 609.217Z" fill="#dddddd" fill-rule="nonzero" opacity="1" stroke="none" vectornator:layerName="path"/>
</g>
</g>
<g opacity="1" vectornator:layerName="Group 3">
<g opacity="1" vectornator:layerName="Shoe Print 1">
<path d="M393.812 630.246C390.933 630.246 388.604 629.371 386.891 627.644C384.188 624.918 383.649 620.69 383.674 617.622C383.676 617.338 383.799 617.069 384.011 616.881C384.223 616.693 384.508 616.603 384.788 616.637C384.808 616.639 386.859 616.87 389.417 616.87C390.504 616.87 391.533 616.829 392.476 616.747C395.367 616.496 397.45 615.909 398.34 615.658L398.722 615.553C399.25 615.416 399.793 615.732 399.937 616.262C401.187 620.903 400.734 625.091 398.695 627.751C397.461 629.36 395.727 630.246 393.812 630.246ZM383.468 609.217C383.334 609.217 383.199 609.19 383.073 609.136C382.814 609.025 382.615 608.81 382.523 608.543C382.449 608.328 380.706 603.226 380.619 598.832C380.515 593.509 381.697 586.502 385.327 582.801C386.989 581.105 388.993 580.246 391.285 580.246C393.77 580.246 395.894 581.176 397.598 583.011C400.964 586.638 401.815 592.929 401.565 596.273C401.137 602.004 398.858 607.376 398.761 607.601C398.573 608.039 398.104 608.285 397.636 608.186C397.593 608.177 392.983 607.215 390.856 607.365C388.78 607.518 385.717 608.293 383.883 609.127C383.751 609.186 383.609 609.217 383.468 609.217Z" fill="#dddddd" fill-rule="nonzero" opacity="1" stroke="none" vectornator:layerName="path"/>
</g>
<g opacity="1" vectornator:layerName="Shoe Print">
<path d="M417.837 630.246C420.716 630.246 423.045 629.371 424.758 627.644C427.461 624.918 428 620.69 427.975 617.622C427.973 617.338 427.85 617.069 427.638 616.881C427.426 616.693 427.141 616.603 426.861 616.637C426.841 616.639 424.79 616.87 422.232 616.87C421.145 616.87 420.116 616.829 419.173 616.747C416.282 616.496 414.199 615.909 413.309 615.658L412.927 615.553C412.399 615.416 411.856 615.732 411.712 616.262C410.462 620.903 410.915 625.091 412.954 627.751C414.188 629.36 415.922 630.246 417.837 630.246ZM428.181 609.217C428.315 609.217 428.45 609.19 428.576 609.136C428.835 609.025 429.034 608.81 429.126 608.543C429.2 608.328 430.943 603.226 431.03 598.832C431.134 593.509 429.952 586.502 426.322 582.801C424.66 581.105 422.656 580.246 420.364 580.246C417.879 580.246 415.755 581.176 414.051 583.011C410.685 586.638 409.834 592.929 410.084 596.273C410.512 602.004 412.791 607.376 412.888 607.601C413.076 608.039 413.545 608.285 414.013 608.186C414.056 608.177 418.666 607.215 420.793 607.365C422.869 607.518 425.932 608.293 427.766 609.127C427.898 609.186 428.04 609.217 428.181 609.217Z" fill="#dddddd" fill-rule="nonzero" opacity="1" stroke="none" vectornator:layerName="path"/>
</g>
</g>
<g opacity="1" vectornator:layerName="Group 4">
<g opacity="1" vectornator:layerName="Shoe Print 1">
<path d="M393.812 543.414C390.933 543.414 388.604 542.539 386.891 540.812C384.188 538.086 383.649 533.858 383.674 530.79C383.676 530.506 383.799 530.237 384.011 530.049C384.223 529.861 384.508 529.771 384.788 529.805C384.808 529.807 386.859 530.038 389.417 530.038C390.504 530.038 391.533 529.997 392.476 529.915C395.367 529.664 397.45 529.077 398.34 528.826L398.722 528.721C399.25 528.584 399.793 528.9 399.937 529.43C401.187 534.071 400.734 538.259 398.695 540.919C397.461 542.528 395.727 543.414 393.812 543.414ZM383.468 522.385C383.334 522.385 383.199 522.358 383.073 522.304C382.814 522.193 382.615 521.978 382.523 521.711C382.449 521.496 380.706 516.394 380.619 512C380.515 506.677 381.697 499.67 385.327 495.969C386.989 494.273 388.993 493.414 391.285 493.414C393.77 493.414 395.894 494.344 397.598 496.179C400.964 499.806 401.815 506.097 401.565 509.441C401.137 515.172 398.858 520.544 398.761 520.769C398.573 521.207 398.104 521.453 397.636 521.354C397.593 521.345 392.983 520.383 390.856 520.533C388.78 520.686 385.717 521.461 383.883 522.295C383.751 522.354 383.609 522.385 383.468 522.385Z" fill="#dddddd" fill-rule="nonzero" opacity="1" stroke="none" vectornator:layerName="path"/>
</g>
<g opacity="1" vectornator:layerName="Shoe Print">
<path d="M417.837 543.414C420.716 543.414 423.045 542.539 424.758 540.812C427.461 538.086 428 533.858 427.975 530.79C427.973 530.506 427.85 530.237 427.638 530.049C427.426 529.861 427.141 529.771 426.861 529.805C426.841 529.807 424.79 530.038 422.232 530.038C421.145 530.038 420.116 529.997 419.173 529.915C416.282 529.664 414.199 529.077 413.309 528.826L412.927 528.721C412.399 528.584 411.856 528.9 411.712 529.43C410.462 534.071 410.915 538.259 412.954 540.919C414.188 542.528 415.922 543.414 417.837 543.414ZM428.181 522.385C428.315 522.385 428.45 522.358 428.576 522.304C428.835 522.193 429.034 521.978 429.126 521.711C429.2 521.496 430.943 516.394 431.03 512C431.134 506.677 429.952 499.67 426.322 495.969C424.66 494.273 422.656 493.414 420.364 493.414C417.879 493.414 415.755 494.344 414.051 496.179C410.685 499.806 409.834 506.097 410.084 509.441C410.512 515.172 412.791 520.544 412.888 520.769C413.076 521.207 413.545 521.453 414.013 521.354C414.056 521.345 418.666 520.383 420.793 520.533C422.869 520.686 425.932 521.461 427.766 522.295C427.898 522.354 428.04 522.385 428.181 522.385Z" fill="#dddddd" fill-rule="nonzero" opacity="1" stroke="none" vectornator:layerName="path"/>
</g>
</g>
<g opacity="1" vectornator:layerName="Group 14">
<g opacity="1" vectornator:layerName="Shoe Print 1">
<path d="M632.577 369.75C629.698 369.75 627.369 368.875 625.656 367.148C622.953 364.422 622.414 360.194 622.439 357.126C622.441 356.842 622.564 356.573 622.776 356.385C622.988 356.197 623.273 356.107 623.553 356.141C623.573 356.143 625.624 356.374 628.182 356.374C629.269 356.374 630.298 356.333 631.241 356.251C634.132 356 636.215 355.413 637.105 355.162L637.487 355.057C638.015 354.92 638.558 355.236 638.702 355.766C639.952 360.407 639.499 364.595 637.46 367.255C636.226 368.864 634.492 369.75 632.577 369.75ZM622.233 348.721C622.099 348.721 621.964 348.694 621.838 348.64C621.579 348.529 621.38 348.314 621.288 348.047C621.214 347.832 619.471 342.73 619.384 338.336C619.28 333.013 620.462 326.006 624.092 322.305C625.754 320.609 627.758 319.75 630.05 319.75C632.535 319.75 634.659 320.68 636.363 322.515C639.729 326.142 640.58 332.433 640.33 335.777C639.902 341.508 637.623 346.88 637.526 347.105C637.338 347.543 636.869 347.789 636.401 347.69C636.358 347.681 631.748 346.719 629.621 346.869C627.545 347.022 624.482 347.797 622.648 348.631C622.516 348.69 622.374 348.721 622.233 348.721Z" fill="#dddddd" fill-rule="nonzero" opacity="1" stroke="none" vectornator:layerName="path"/>
</g>
<g opacity="1" vectornator:layerName="Shoe Print">
<path d="M656.601 369.75C659.48 369.75 661.809 368.875 663.522 367.148C666.225 364.422 666.764 360.194 666.739 357.126C666.737 356.842 666.614 356.573 666.402 356.385C666.19 356.197 665.905 356.107 665.625 356.141C665.605 356.143 663.554 356.374 660.996 356.374C659.909 356.374 658.88 356.333 657.937 356.251C655.046 356 652.963 355.413 652.073 355.162L651.691 355.057C651.163 354.92 650.62 355.236 650.476 355.766C649.226 360.407 649.679 364.595 651.718 367.255C652.952 368.864 654.686 369.75 656.601 369.75ZM666.945 348.721C667.079 348.721 667.214 348.694 667.34 348.64C667.599 348.529 667.798 348.314 667.89 348.047C667.964 347.832 669.707 342.73 669.794 338.336C669.898 333.013 668.716 326.006 665.086 322.305C663.424 320.609 661.42 319.75 659.128 319.75C656.643 319.75 654.519 320.68 652.815 322.515C649.449 326.142 648.598 332.433 648.848 335.777C649.276 341.508 651.555 346.88 651.652 347.105C651.84 347.543 652.309 347.789 652.777 347.69C652.82 347.681 657.43 346.719 659.557 346.869C661.633 347.022 664.696 347.797 666.53 348.631C666.662 348.69 666.804 348.721 666.945 348.721Z" fill="#dddddd" fill-rule="nonzero" opacity="1" stroke="none" vectornator:layerName="path"/>
</g>
</g>
<g opacity="1" vectornator:layerName="Group 15">
<g opacity="1" vectornator:layerName="Shoe Print 1">
<path d="M552.989 369.75C550.11 369.75 547.781 368.875 546.068 367.148C543.365 364.422 542.826 360.194 542.851 357.126C542.853 356.842 542.976 356.573 543.188 356.385C543.4 356.197 543.685 356.107 543.965 356.141C543.985 356.143 546.036 356.374 548.594 356.374C549.681 356.374 550.71 356.333 551.653 356.251C554.544 356 556.627 355.413 557.517 355.162L557.899 355.057C558.427 354.92 558.97 355.236 559.114 355.766C560.364 360.407 559.911 364.595 557.872 367.255C556.638 368.864 554.904 369.75 552.989 369.75ZM542.645 348.721C542.511 348.721 542.376 348.694 542.25 348.64C541.991 348.529 541.792 348.314 541.7 348.047C541.626 347.832 539.883 342.73 539.796 338.336C539.692 333.013 540.874 326.006 544.504 322.305C546.166 320.609 548.17 319.75 550.462 319.75C552.947 319.75 555.071 320.68 556.775 322.515C560.141 326.142 560.992 332.433 560.742 335.777C560.314 341.508 558.035 346.88 557.938 347.105C557.75 347.543 557.281 347.789 556.813 347.69C556.77 347.681 552.16 346.719 550.033 346.869C547.957 347.022 544.894 347.797 543.06 348.631C542.928 348.69 542.786 348.721 542.645 348.721Z" fill="#dddddd" fill-rule="nonzero" opacity="1" stroke="none" vectornator:layerName="path"/>
</g>
<g opacity="1" vectornator:layerName="Shoe Print">
<path d="M577.013 369.75C579.892 369.75 582.221 368.875 583.934 367.148C586.637 364.422 587.176 360.194 587.151 357.126C587.149 356.842 587.026 356.573 586.814 356.385C586.602 356.197 586.317 356.107 586.037 356.141C586.017 356.143 583.966 356.374 581.408 356.374C580.321 356.374 579.292 356.333 578.349 356.251C575.458 356 573.375 355.413 572.485 355.162L572.103 355.057C571.575 354.92 571.032 355.236 570.888 355.766C569.638 360.407 570.091 364.595 572.13 367.255C573.364 368.864 575.098 369.75 577.013 369.75ZM587.357 348.721C587.491 348.721 587.626 348.694 587.752 348.64C588.011 348.529 588.21 348.314 588.302 348.047C588.376 347.832 590.119 342.73 590.206 338.336C590.31 333.013 589.128 326.006 585.498 322.305C583.836 320.609 581.832 319.75 579.54 319.75C577.055 319.75 574.931 320.68 573.227 322.515C569.861 326.142 569.01 332.433 569.26 335.777C569.688 341.508 571.967 346.88 572.064 347.105C572.252 347.543 572.721 347.789 573.189 347.69C573.232 347.681 577.842 346.719 579.969 346.869C582.045 347.022 585.108 347.797 586.942 348.631C587.074 348.69 587.216 348.721 587.357 348.721Z" fill="#dddddd" fill-rule="nonzero" opacity="1" stroke="none" vectornator:layerName="path"/>
</g>
</g>
<g opacity="1" vectornator:layerName="Group 16">
<g opacity="1" vectornator:layerName="Shoe Print 1">
<path d="M473.4 369.75C470.521 369.75 468.192 368.875 466.479 367.148C463.776 364.422 463.237 360.194 463.262 357.126C463.264 356.842 463.387 356.573 463.599 356.385C463.811 356.197 464.096 356.107 464.376 356.141C464.396 356.143 466.447 356.374 469.005 356.374C470.092 356.374 471.121 356.333 472.064 356.251C474.955 356 477.038 355.413 477.928 355.162L478.31 355.057C478.838 354.92 479.381 355.236 479.525 355.766C480.775 360.407 480.322 364.595 478.283 367.255C477.049 368.864 475.315 369.75 473.4 369.75ZM463.056 348.721C462.922 348.721 462.787 348.694 462.661 348.64C462.402 348.529 462.203 348.314 462.111 348.047C462.037 347.832 460.294 342.73 460.207 338.336C460.103 333.013 461.285 326.006 464.915 322.305C466.577 320.609 468.581 319.75 470.873 319.75C473.358 319.75 475.482 320.68 477.186 322.515C480.552 326.142 481.403 332.433 481.153 335.777C480.725 341.508 478.446 346.88 478.349 347.105C478.161 347.543 477.692 347.789 477.224 347.69C477.181 347.681 472.571 346.719 470.444 346.869C468.368 347.022 465.305 347.797 463.471 348.631C463.339 348.69 463.197 348.721 463.056 348.721Z" fill="#dddddd" fill-rule="nonzero" opacity="1" stroke="none" vectornator:layerName="path"/>
</g>
<g opacity="1" vectornator:layerName="Shoe Print">
<path d="M497.425 369.75C500.304 369.75 502.633 368.875 504.346 367.148C507.049 364.422 507.588 360.194 507.563 357.126C507.561 356.842 507.438 356.573 507.226 356.385C507.014 356.197 506.729 356.107 506.449 356.141C506.429 356.143 504.378 356.374 501.82 356.374C500.733 356.374 499.704 356.333 498.761 356.251C495.87 356 493.787 355.413 492.897 355.162L492.515 355.057C491.987 354.92 491.444 355.236 491.3 355.766C490.05 360.407 490.503 364.595 492.542 367.255C493.776 368.864 495.51 369.75 497.425 369.75ZM507.769 348.721C507.903 348.721 508.038 348.694 508.164 348.64C508.423 348.529 508.622 348.314 508.714 348.047C508.788 347.832 510.531 342.73 510.618 338.336C510.722 333.013 509.54 326.006 505.91 322.305C504.248 320.609 502.244 319.75 499.952 319.75C497.467 319.75 495.343 320.68 493.639 322.515C490.273 326.142 489.422 332.433 489.672 335.777C490.1 341.508 492.379 346.88 492.476 347.105C492.664 347.543 493.133 347.789 493.601 347.69C493.644 347.681 498.254 346.719 500.381 346.869C502.457 347.022 505.52 347.797 507.354 348.631C507.486 348.69 507.628 348.721 507.769 348.721Z" fill="#dddddd" fill-rule="nonzero" opacity="1" stroke="none" vectornator:layerName="path"/>
</g>
</g>
<g opacity="1" vectornator:layerName="Group 17">
<g opacity="1" vectornator:layerName="Shoe Print 1">
<path d="M473.4 456.582C470.521 456.582 468.192 455.707 466.479 453.98C463.776 451.254 463.237 447.026 463.262 443.958C463.264 443.674 463.387 443.405 463.599 443.217C463.811 443.029 464.096 442.939 464.376 442.973C464.396 442.975 466.447 443.206 469.005 443.206C470.092 443.206 471.121 443.165 472.064 443.083C474.955 442.832 477.038 442.245 477.928 441.994L478.31 441.889C478.838 441.752 479.381 442.068 479.525 442.598C480.775 447.239 480.322 451.427 478.283 454.087C477.049 455.696 475.315 456.582 473.4 456.582ZM463.056 435.553C462.922 435.553 462.787 435.526 462.661 435.472C462.402 435.361 462.203 435.146 462.111 434.879C462.037 434.664 460.294 429.562 460.207 425.168C460.103 419.845 461.285 412.838 464.915 409.137C466.577 407.441 468.581 406.582 470.873 406.582C473.358 406.582 475.482 407.512 477.186 409.347C480.552 412.974 481.403 419.265 481.153 422.609C480.725 428.34 478.446 433.712 478.349 433.937C478.161 434.375 477.692 434.621 477.224 434.522C477.181 434.513 472.571 433.551 470.444 433.701C468.368 433.854 465.305 434.629 463.471 435.463C463.339 435.522 463.197 435.553 463.056 435.553Z" fill="#dddddd" fill-rule="nonzero" opacity="1" stroke="none" vectornator:layerName="path"/>
</g>
<g opacity="1" vectornator:layerName="Shoe Print">
<path d="M497.425 456.582C500.304 456.582 502.633 455.707 504.346 453.98C507.049 451.254 507.588 447.026 507.563 443.958C507.561 443.674 507.438 443.405 507.226 443.217C507.014 443.029 506.729 442.939 506.449 442.973C506.429 442.975 504.378 443.206 501.82 443.206C500.733 443.206 499.704 443.165 498.761 443.083C495.87 442.832 493.787 442.245 492.897 441.994L492.515 441.889C491.987 441.752 491.444 442.068 491.3 442.598C490.05 447.239 490.503 451.427 492.542 454.087C493.776 455.696 495.51 456.582 497.425 456.582ZM507.769 435.553C507.903 435.553 508.038 435.526 508.164 435.472C508.423 435.361 508.622 435.146 508.714 434.879C508.788 434.664 510.531 429.562 510.618 425.168C510.722 419.845 509.54 412.838 505.91 409.137C504.248 407.441 502.244 406.582 499.952 406.582C497.467 406.582 495.343 407.512 493.639 409.347C490.273 412.974 489.422 419.265 489.672 422.609C490.1 428.34 492.379 433.712 492.476 433.937C492.664 434.375 493.133 434.621 493.601 434.522C493.644 434.513 498.254 433.551 500.381 433.701C502.457 433.854 505.52 434.629 507.354 435.463C507.486 435.522 507.628 435.553 507.769 435.553Z" fill="#dddddd" fill-rule="nonzero" opacity="1" stroke="none" vectornator:layerName="path"/>
</g>
</g>
<g opacity="1" vectornator:layerName="Group 18">
<g opacity="1" vectornator:layerName="Shoe Print 1">
<path d="M393.812 456.582C390.933 456.582 388.604 455.707 386.891 453.98C384.188 451.254 383.649 447.026 383.674 443.958C383.676 443.674 383.799 443.405 384.011 443.217C384.223 443.029 384.508 442.939 384.788 442.973C384.808 442.975 386.859 443.206 389.417 443.206C390.504 443.206 391.533 443.165 392.476 443.083C395.367 442.832 397.45 442.245 398.34 441.994L398.722 441.889C399.25 441.752 399.793 442.068 399.937 442.598C401.187 447.239 400.734 451.427 398.695 454.087C397.461 455.696 395.727 456.582 393.812 456.582ZM383.468 435.553C383.334 435.553 383.199 435.526 383.073 435.472C382.814 435.361 382.615 435.146 382.523 434.879C382.449 434.664 380.706 429.562 380.619 425.168C380.515 419.845 381.697 412.838 385.327 409.137C386.989 407.441 388.993 406.582 391.285 406.582C393.77 406.582 395.894 407.512 397.598 409.347C400.964 412.974 401.815 419.265 401.565 422.609C401.137 428.34 398.858 433.712 398.761 433.937C398.573 434.375 398.104 434.621 397.636 434.522C397.593 434.513 392.983 433.551 390.856 433.701C388.78 433.854 385.717 434.629 383.883 435.463C383.751 435.522 383.609 435.553 383.468 435.553Z" fill="#dddddd" fill-rule="nonzero" opacity="1" stroke="none" vectornator:layerName="path"/>
</g>
<g opacity="1" vectornator:layerName="Shoe Print">
<path d="M417.837 456.582C420.716 456.582 423.045 455.707 424.758 453.98C427.461 451.254 428 447.026 427.975 443.958C427.973 443.674 427.85 443.405 427.638 443.217C427.426 443.029 427.141 442.939 426.861 442.973C426.841 442.975 424.79 443.206 422.232 443.206C421.145 443.206 420.116 443.165 419.173 443.083C416.282 442.832 414.199 442.245 413.309 441.994L412.927 441.889C412.399 441.752 411.856 442.068 411.712 442.598C410.462 447.239 410.915 451.427 412.954 454.087C414.188 455.696 415.922 456.582 417.837 456.582ZM428.181 435.553C428.315 435.553 428.45 435.526 428.576 435.472C428.835 435.361 429.034 435.146 429.126 434.879C429.2 434.664 430.943 429.562 431.03 425.168C431.134 419.845 429.952 412.838 426.322 409.137C424.66 407.441 422.656 406.582 420.364 406.582C417.879 406.582 415.755 407.512 414.051 409.347C410.685 412.974 409.834 419.265 410.084 422.609C410.512 428.34 412.791 433.712 412.888 433.937C413.076 434.375 413.545 434.621 414.013 434.522C414.056 434.513 418.666 433.551 420.793 433.701C422.869 433.854 425.932 434.629 427.766 435.463C427.898 435.522 428.04 435.553 428.181 435.553Z" fill="#dddddd" fill-rule="nonzero" opacity="1" stroke="none" vectornator:layerName="path"/>
</g>
</g>
<g opacity="1" vectornator:layerName="Group 6">
<g opacity="1" vectornator:layerName="Shoe Print 1">
<path d="M393.812 369.75C390.933 369.75 388.604 368.875 386.891 367.148C384.188 364.422 383.649 360.194 383.674 357.126C383.676 356.842 383.799 356.573 384.011 356.385C384.223 356.197 384.508 356.107 384.788 356.141C384.808 356.143 386.859 356.374 389.417 356.374C390.504 356.374 391.533 356.333 392.476 356.251C395.367 356 397.45 355.413 398.34 355.162L398.722 355.057C399.25 354.92 399.793 355.236 399.937 355.766C401.187 360.407 400.734 364.595 398.695 367.255C397.461 368.864 395.727 369.75 393.812 369.75ZM383.468 348.721C383.334 348.721 383.199 348.694 383.073 348.64C382.814 348.529 382.615 348.314 382.523 348.047C382.449 347.832 380.706 342.73 380.619 338.336C380.515 333.013 381.697 326.006 385.327 322.305C386.989 320.609 388.993 319.75 391.285 319.75C393.77 319.75 395.894 320.68 397.598 322.515C400.964 326.142 401.815 332.433 401.565 335.777C401.137 341.508 398.858 346.88 398.761 347.105C398.573 347.543 398.104 347.789 397.636 347.69C397.593 347.681 392.983 346.719 390.856 346.869C388.78 347.022 385.717 347.797 383.883 348.631C383.751 348.69 383.609 348.721 383.468 348.721Z" fill="#dddddd" fill-rule="nonzero" opacity="1" stroke="none" vectornator:layerName="path"/>
</g>
<g opacity="1" vectornator:layerName="Shoe Print">
<path d="M417.837 369.75C420.716 369.75 423.045 368.875 424.758 367.148C427.461 364.422 428 360.194 427.975 357.126C427.973 356.842 427.85 356.573 427.638 356.385C427.426 356.197 427.141 356.107 426.861 356.141C426.841 356.143 424.79 356.374 422.232 356.374C421.145 356.374 420.116 356.333 419.173 356.251C416.282 356 414.199 355.413 413.309 355.162L412.927 355.057C412.399 354.92 411.856 355.236 411.712 355.766C410.462 360.407 410.915 364.595 412.954 367.255C414.188 368.864 415.922 369.75 417.837 369.75ZM428.181 348.721C428.315 348.721 428.45 348.694 428.576 348.64C428.835 348.529 429.034 348.314 429.126 348.047C429.2 347.832 430.943 342.73 431.03 338.336C431.134 333.013 429.952 326.006 426.322 322.305C424.66 320.609 422.656 319.75 420.364 319.75C417.879 319.75 415.755 320.68 414.051 322.515C410.685 326.142 409.834 332.433 410.084 335.777C410.512 341.508 412.791 346.88 412.888 347.105C413.076 347.543 413.545 347.789 414.013 347.69C414.056 347.681 418.666 346.719 420.793 346.869C422.869 347.022 425.932 347.797 427.766 348.631C427.898 348.69 428.04 348.721 428.181 348.721Z" fill="#dddddd" fill-rule="nonzero" opacity="1" stroke="none" vectornator:layerName="path"/>
</g>
</g>
<path d="M347.686 387.166C347.686 386.613 348.134 386.166 348.686 386.166L699.506 386.166C700.058 386.166 700.506 386.613 700.506 387.166L700.506 387.166C700.506 387.718 700.058 388.166 699.506 388.166L348.686 388.166C348.134 388.166 347.686 387.718 347.686 387.166L347.686 387.166Z" fill="#303030" fill-opacity="0.195962" fill-rule="nonzero" opacity="1" stroke="none" vectornator:layerName="Rectangle 2"/>
<path d="M347.686 473.998C347.686 473.446 348.134 472.998 348.686 472.998L699.506 472.998C700.058 472.998 700.506 473.446 700.506 473.998L700.506 473.998C700.506 474.55 700.058 474.998 699.506 474.998L348.686 474.998C348.134 474.998 347.686 474.55 347.686 473.998L347.686 473.998Z" fill="#303030" fill-opacity="0.195962" fill-rule="nonzero" opacity="1" stroke="none" vectornator:layerName="Rectangle 3"/>
<path d="M347.686 560.83C347.686 560.278 348.134 559.83 348.686 559.83L699.506 559.83C700.058 559.83 700.506 560.278 700.506 560.83L700.506 560.83C700.506 561.382 700.058 561.83 699.506 561.83L348.686 561.83C348.134 561.83 347.686 561.382 347.686 560.83L347.686 560.83Z" fill="#303030" fill-opacity="0.195962" fill-rule="nonzero" opacity="1" stroke="none" vectornator:layerName="Rectangle 4"/>
<path d="M444.508 297.588C445.06 297.588 445.508 298.036 445.508 298.588L445.508 649.408C445.508 649.96 445.06 650.408 444.508 650.408L444.508 650.408C443.956 650.408 443.508 649.96 443.508 649.408L443.508 298.588C443.508 298.036 443.956 297.588 444.508 297.588L444.508 297.588Z" fill="#303030" fill-opacity="0.195962" fill-rule="nonzero" opacity="1" stroke="none" vectornator:layerName="Rectangle 5"/>
<path d="M524.096 297.588C524.648 297.588 525.096 298.036 525.096 298.588L525.096 649.408C525.096 649.96 524.648 650.408 524.096 650.408L524.096 650.408C523.544 650.408 523.096 649.96 523.096 649.408L523.096 298.588C523.096 298.036 523.544 297.588 524.096 297.588L524.096 297.588Z" fill="#303030" fill-opacity="0.195962" fill-rule="nonzero" opacity="1" stroke="none" vectornator:layerName="Rectangle 6"/>
<path d="M603.684 297.588C604.236 297.588 604.684 298.036 604.684 298.588L604.684 649.408C604.684 649.96 604.236 650.408 603.684 650.408L603.684 650.408C603.132 650.408 602.684 649.96 602.684 649.408L602.684 298.588C602.684 298.036 603.132 297.588 603.684 297.588L603.684 297.588Z" fill="#303030" fill-opacity="0.195962" fill-rule="nonzero" opacity="1" stroke="none" vectornator:layerName="Rectangle 1"/>
</g>
</g>
</svg>
