<?xml version="1.0" encoding="UTF-8" standalone="no"?>
<!DOCTYPE svg PUBLIC "-//W3C//DTD SVG 1.1//EN" "http://www.w3.org/Graphics/SVG/1.1/DTD/svg11.dtd">
<!-- Created with Vectornator (http://vectornator.io/) -->
<svg height="100%" stroke-miterlimit="10" style="fill-rule:nonzero;clip-rule:evenodd;stroke-linecap:round;stroke-linejoin:round;" version="1.1" viewBox="1698.7 1068.48 19.9957 17.9993" width="100%" xml:space="preserve" xmlns="http://www.w3.org/2000/svg" xmlns:vectornator="http://vectornator.io" xmlns:xlink="http://www.w3.org/1999/xlink">
<defs/>
<clipPath id="ArtboardFrame">
<rect height="17.9993" width="19.9957" x="1698.7" y="1068.48"/>
</clipPath>
<g clip-path="url(#ArtboardFrame)" id="Layer" vectornator:layerName="Layer">
<g opacity="1" vectornator:layerName="Telegram App">
<path d="M1718.14 1068.85C1717.66 1068.44 1716.93 1068.36 1716.21 1068.65C1715.76 1068.83 1708.71 1071.79 1702.13 1074.56L1699.96 1075.47C1699.12 1075.82 1698.7 1076.37 1698.7 1077.12C1698.7 1077.64 1698.92 1078.35 1699.97 1078.77L1703.64 1080.23C1703.96 1081.19 1704.69 1083.39 1704.88 1083.98C1704.99 1084.33 1705.27 1085.21 1705.97 1085.41C1706.11 1085.46 1706.26 1085.48 1706.42 1085.48C1706.86 1085.48 1707.18 1085.28 1707.33 1085.16L1709.66 1083.19L1712.49 1085.81C1712.6 1085.92 1713.18 1086.48 1713.95 1086.48C1714.92 1086.48 1715.66 1085.67 1715.81 1084.89C1715.89 1084.47 1718.62 1070.76 1718.62 1070.77C1718.87 1069.67 1718.43 1069.1 1718.14 1068.85ZM1713.86 1084.34L1709.72 1080.52L1706.69 1083.08C1706.33 1081.98 1705.39 1079.16 1705.39 1079.16L1705.25 1078.72L1701.22 1077.11L1702.91 1076.4C1707.21 1074.59 1714.87 1071.37 1716.6 1070.65C1716.23 1072.54 1714.17 1082.86 1713.86 1084.34Z" fill="#303030" fill-rule="nonzero" opacity="1" stroke="none" vectornator:layerName="path"/>
<path d="M1713.49 1073.48C1713.37 1073.48 1713.2 1073.6 1713.11 1073.65C1711.82 1074.46 1705.36 1078.13 1703.59 1079.14C1704.09 1079.34 1704.44 1079.48 1704.44 1079.48C1704.44 1079.48 1705.59 1082.92 1705.83 1083.68C1706.07 1084.43 1706.26 1084.45 1706.26 1084.45C1706.32 1084.47 1706.37 1084.48 1706.42 1084.48C1706.46 1084.48 1706.48 1084.47 1706.52 1084.46L1707.69 1079.85C1707.69 1079.85 1713.06 1074.42 1713.38 1074.11C1713.64 1073.86 1713.69 1073.77 1713.69 1073.68C1713.69 1073.56 1713.63 1073.48 1713.49 1073.48Z" fill="#303030" fill-rule="nonzero" opacity="1" stroke="none" vectornator:layerName="path"/>
</g>
</g>
</svg>
