<?xml version="1.0" encoding="UTF-8" standalone="no"?>
<!DOCTYPE svg PUBLIC "-//W3C//DTD SVG 1.1//EN" "http://www.w3.org/Graphics/SVG/1.1/DTD/svg11.dtd">
<!-- Created with Vectornator (http://vectornator.io/) -->
<svg height="100%" stroke-miterlimit="10" style="fill-rule:nonzero;clip-rule:evenodd;stroke-linecap:round;stroke-linejoin:round;" version="1.1" viewBox="1844.62 1008.44 19.9957 17.9993" width="100%" xml:space="preserve" xmlns="http://www.w3.org/2000/svg" xmlns:vectornator="http://vectornator.io" xmlns:xlink="http://www.w3.org/1999/xlink">
<defs/>
<clipPath id="ArtboardFrame">
<rect height="17.9993" width="19.9957" x="1844.62" y="1008.44"/>
</clipPath>
<g clip-path="url(#ArtboardFrame)" id="Layer" vectornator:layerName="Layer">
<g opacity="1" vectornator:layerName="Telegram App">
<path d="M1864.07 1008.82C1863.59 1008.4 1862.86 1008.32 1862.14 1008.61C1861.69 1008.79 1854.64 1011.75 1848.06 1014.52L1845.89 1015.44C1845.05 1015.78 1844.62 1016.33 1844.62 1017.08C1844.62 1017.6 1844.85 1018.31 1845.9 1018.73L1849.57 1020.2C1849.89 1021.15 1850.62 1023.35 1850.81 1023.94C1850.92 1024.29 1851.2 1025.17 1851.9 1025.37C1852.04 1025.42 1852.19 1025.45 1852.34 1025.45C1852.79 1025.45 1853.11 1025.24 1853.26 1025.12L1855.59 1023.15L1858.42 1025.77C1858.53 1025.88 1859.11 1026.44 1859.88 1026.44C1860.85 1026.44 1861.58 1025.63 1861.74 1024.85C1861.82 1024.43 1864.55 1010.73 1864.55 1010.73C1864.79 1009.63 1864.35 1009.06 1864.07 1008.82ZM1859.79 1024.3L1855.65 1020.48L1852.62 1023.04C1852.26 1021.94 1851.32 1019.12 1851.32 1019.12L1851.17 1018.68L1847.15 1017.07L1848.84 1016.37C1853.14 1014.56 1860.8 1011.33 1862.53 1010.61C1862.15 1012.5 1860.1 1022.82 1859.79 1024.3Z" fill="#f6f6f6" fill-rule="nonzero" opacity="1" stroke="none" vectornator:layerName="path"/>
<path d="M1859.42 1013.44C1859.3 1013.44 1859.13 1013.56 1859.04 1013.61C1857.75 1014.42 1851.29 1018.09 1849.52 1019.1C1850.02 1019.3 1850.37 1019.44 1850.37 1019.44C1850.37 1019.44 1851.52 1022.88 1851.76 1023.64C1852 1024.39 1852.19 1024.41 1852.19 1024.41C1852.25 1024.44 1852.3 1024.44 1852.35 1024.44C1852.38 1024.44 1852.41 1024.43 1852.44 1024.42L1853.62 1019.81C1853.62 1019.81 1858.98 1014.39 1859.31 1014.07C1859.57 1013.82 1859.62 1013.73 1859.62 1013.64C1859.62 1013.52 1859.56 1013.44 1859.42 1013.44Z" fill="#f6f6f6" fill-rule="nonzero" opacity="1" stroke="none" vectornator:layerName="path"/>
</g>
</g>
</svg>
