<?xml version="1.0" encoding="UTF-8" standalone="no"?>
<!DOCTYPE svg PUBLIC "-//W3C//DTD SVG 1.1//EN" "http://www.w3.org/Graphics/SVG/1.1/DTD/svg11.dtd">
<!-- Created with Vectornator (http://vectornator.io/) -->
<svg height="100%" stroke-miterlimit="10" style="fill-rule:nonzero;clip-rule:evenodd;stroke-linecap:round;stroke-linejoin:round;" version="1.1" viewBox="1824.63 1088.12 19.999 20" width="100%" xml:space="preserve" xmlns="http://www.w3.org/2000/svg" xmlns:vectornator="http://vectornator.io" xmlns:xlink="http://www.w3.org/1999/xlink">
<defs/>
<clipPath id="ArtboardFrame">
<rect height="20" width="19.999" x="1824.63" y="1088.12"/>
</clipPath>
<g clip-path="url(#ArtboardFrame)" id="Layer" vectornator:layerName="Layer">
<g opacity="1" vectornator:layerName="WhatsApp 6">
<path d="M1841.7 1091.05C1839.82 1089.16 1837.31 1088.12 1834.64 1088.12C1829.13 1088.12 1824.65 1092.6 1824.65 1098.1C1824.65 1099.86 1825.11 1101.58 1825.98 1103.1L1824.63 1108.12L1829.86 1106.88C1831.32 1107.68 1832.96 1108.1 1834.63 1108.1L1834.64 1108.1C1840.14 1108.1 1844.62 1103.62 1844.62 1098.11C1844.63 1095.44 1843.59 1092.94 1841.7 1091.05ZM1834.63 1106.1C1833.3 1106.1 1831.98 1105.76 1830.82 1105.13L1830.14 1104.76L1829.4 1104.94L1827.43 1105.4L1827.91 1103.62L1828.13 1102.81L1827.71 1102.1C1827.01 1100.89 1826.65 1099.51 1826.65 1098.1C1826.65 1093.7 1830.23 1090.12 1834.64 1090.12C1836.77 1090.12 1838.78 1090.95 1840.29 1092.46C1841.8 1093.97 1842.63 1095.98 1842.62 1098.11C1842.62 1102.52 1839.04 1106.1 1834.63 1106.1Z" fill="#f6f6f6" fill-rule="nonzero" opacity="1" stroke="none" vectornator:layerName="path"/>
<path d="M1839.52 1101.67C1839.32 1102.26 1838.3 1102.82 1837.84 1102.86C1837.38 1102.9 1836.95 1103.07 1834.84 1102.24C1832.31 1101.24 1830.7 1098.63 1830.58 1098.47C1830.46 1098.3 1829.56 1097.12 1829.56 1095.89C1829.56 1094.66 1830.21 1094.06 1830.44 1093.81C1830.66 1093.56 1830.93 1093.49 1831.1 1093.49C1831.27 1093.49 1831.43 1093.49 1831.58 1093.5C1831.76 1093.51 1831.95 1093.52 1832.14 1093.93C1832.36 1094.43 1832.85 1095.66 1832.91 1095.78C1832.97 1095.91 1833.01 1096.06 1832.93 1096.22C1832.85 1096.39 1832.81 1096.49 1832.68 1096.64C1832.56 1096.78 1832.42 1096.96 1832.31 1097.07C1832.18 1097.2 1832.05 1097.33 1832.2 1097.58C1832.34 1097.83 1832.84 1098.65 1833.59 1099.31C1834.54 1100.16 1835.34 1100.42 1835.59 1100.55C1835.84 1100.68 1835.99 1100.65 1836.13 1100.49C1836.28 1100.32 1836.76 1099.76 1836.92 1099.51C1837.09 1099.26 1837.26 1099.3 1837.49 1099.38C1837.72 1099.47 1838.94 1100.07 1839.19 1100.2C1839.44 1100.32 1839.61 1100.38 1839.67 1100.49C1839.73 1100.59 1839.73 1101.09 1839.52 1101.67Z" fill="#f6f6f6" fill-rule="nonzero" opacity="1" stroke="none" vectornator:layerName="path"/>
</g>
</g>
</svg>
