<?xml version="1.0" encoding="UTF-8" standalone="no"?>
<!DOCTYPE svg PUBLIC "-//W3C//DTD SVG 1.1//EN" "http://www.w3.org/Graphics/SVG/1.1/DTD/svg11.dtd">
<!-- Created with Vectornator (http://vectornator.io/) -->
<svg height="100%" stroke-miterlimit="10" style="fill-rule:nonzero;clip-rule:evenodd;stroke-linecap:round;stroke-linejoin:round;" version="1.1" viewBox="1678.7 1120.24 19.999 20" width="100%" xml:space="preserve" xmlns="http://www.w3.org/2000/svg" xmlns:vectornator="http://vectornator.io" xmlns:xlink="http://www.w3.org/1999/xlink">
<defs/>
<clipPath id="ArtboardFrame">
<rect height="20" width="19.999" x="1678.7" y="1120.24"/>
</clipPath>
<g clip-path="url(#ArtboardFrame)" id="Layer" vectornator:layerName="Layer">
<g opacity="1" vectornator:layerName="WhatsApp 6">
<path d="M1695.77 1123.17C1693.89 1121.28 1691.38 1120.24 1688.71 1120.24C1683.2 1120.24 1678.72 1124.72 1678.72 1130.23C1678.72 1131.99 1679.18 1133.71 1680.05 1135.22L1678.7 1140.24L1683.93 1139.01C1685.39 1139.8 1687.03 1140.22 1688.7 1140.22L1688.71 1140.22C1694.21 1140.22 1698.69 1135.74 1698.7 1130.24C1698.7 1127.57 1697.66 1125.06 1695.77 1123.17ZM1688.7 1138.22C1687.37 1138.22 1686.05 1137.88 1684.89 1137.25L1684.22 1136.88L1683.47 1137.06L1681.5 1137.52L1681.98 1135.74L1682.2 1134.94L1681.78 1134.22C1681.09 1133.01 1680.72 1131.63 1680.72 1130.23C1680.72 1125.83 1684.3 1122.24 1688.71 1122.24C1690.84 1122.24 1692.85 1123.08 1694.36 1124.58C1695.87 1126.09 1696.7 1128.1 1696.7 1130.23C1696.69 1134.64 1693.11 1138.22 1688.7 1138.22Z" fill="#303030" fill-rule="nonzero" opacity="1" stroke="none" vectornator:layerName="path"/>
<path d="M1693.6 1133.8C1693.39 1134.38 1692.37 1134.94 1691.91 1134.98C1691.45 1135.02 1691.02 1135.19 1688.92 1134.36C1686.38 1133.36 1684.78 1130.76 1684.65 1130.59C1684.53 1130.42 1683.63 1129.24 1683.63 1128.01C1683.63 1126.78 1684.28 1126.18 1684.51 1125.93C1684.74 1125.68 1685.01 1125.62 1685.17 1125.62C1685.34 1125.62 1685.51 1125.62 1685.65 1125.62C1685.83 1125.63 1686.03 1125.64 1686.21 1126.05C1686.44 1126.55 1686.92 1127.78 1686.98 1127.91C1687.04 1128.03 1687.09 1128.18 1687 1128.34C1686.92 1128.51 1686.88 1128.61 1686.75 1128.76C1686.63 1128.91 1686.49 1129.09 1686.38 1129.2C1686.26 1129.32 1686.13 1129.46 1686.27 1129.71C1686.42 1129.96 1686.92 1130.77 1687.66 1131.43C1688.61 1132.28 1689.42 1132.55 1689.67 1132.67C1689.92 1132.8 1690.06 1132.78 1690.21 1132.61C1690.35 1132.44 1690.83 1131.88 1691 1131.63C1691.16 1131.38 1691.33 1131.42 1691.56 1131.51C1691.79 1131.59 1693.01 1132.19 1693.26 1132.32C1693.51 1132.44 1693.68 1132.51 1693.74 1132.61C1693.8 1132.71 1693.8 1133.21 1693.6 1133.8Z" fill="#303030" fill-rule="nonzero" opacity="1" stroke="none" vectornator:layerName="path"/>
</g>
</g>
</svg>
